<svg xmlns="http://www.w3.org/2000/svg" viewBox="0 0 1476.03 858.36"><defs><style>.cls-1{fill:red;fill-opacity:0.1;stroke:red;}.cls-1,.cls-2{stroke-miterlimit:10;}.cls-2{fill:none;stroke:#000;}</style></defs><g id="Layer_2" data-name="Layer 2"><g id="Layer_2-2" data-name="Layer 2"><g id="floor-5"><g id="building-floor-5"><polygon id="building-floor-5-fab" class="cls-1" points="781.01 436.81 791.84 516.39 807.03 514.59 808.65 518.02 856.25 510.07 853.92 504.91 862.24 503.72 863.94 486.61 862.37 472.49 857.19 456.79 845.87 458.13 842.31 428.95 781.01 436.81"/><polygon id="building-floor-5-morgan" class="cls-1" points="968.52 692.94 956.86 694.02 938.05 656.77 946.21 648.26 886.55 528.74 867.47 530.9 856.25 510.07 808.65 518.02 823.04 546.83 817.34 553.14 800.12 570.99 887.66 747.42 970.92 738.78 984.04 724.54 968.52 692.94"/><polygon id="building-floor-5-angell" class="cls-1" points="845.46 662.29 824.15 664.31 821.47 659.5 657.35 679.22 654.86 691.4 636.8 693.64 629.05 727.68 649.82 768.73 723.79 759.87 724.4 765.04 776.13 758.81 775.54 753.85 831.97 747.37 833.56 740.43 881.55 734.96 845.46 662.29"/><polygon id="building-floor-5-prescott-library" class="cls-1" points="657.35 679.22 653.61 647.64 663.78 634.86 661.99 618.05 648.97 608.42 633.18 610.29 622.96 622.67 623.69 628.83 614.74 629.79 614.98 631.77 599.97 633.45 599.72 631.36 527.7 639.69 541.65 758.37 613.25 749.9 611.59 734.99 631.55 732.63 629.05 727.68 636.8 693.64 654.86 691.4 657.35 679.22"/><polygon id="building-floor-5-gca" class="cls-1" points="527.7 639.69 527.28 636.11 530.15 635.67 525.95 601.93 442.03 612.67 439.65 593.41 423.5 594.72 421.72 607.82 420.53 619.85 419.68 635.66 419.68 650.16 414.9 648.91 410.37 668.48 407.03 684.48 405.36 695.86 403.49 712.39 402.26 729.25 402.25 748.69 402.29 766.1 402.48 771.92 524.38 757.09 523.84 752.52 540.72 750.52 527.7 639.69"/><polygon id="building-floor-5-wheeler-hall" class="cls-1" points="439.65 593.41 437.56 575.74 434.78 576.07 432.94 560.48 421.81 561.79 420.46 550.37 434.86 548.67 432.06 525.03 600.29 505.12 602.82 526.47 604.11 526.32 609.34 570.51 607.95 570.68 610.48 592.03 525.95 601.93 442.03 612.67 439.65 593.41"/><polygon id="building-floor-5-gym" class="cls-1" points="116.86 475.54 140.69 676.83 294.81 658.59 292.56 639.62 313.72 637.12 321.58 673.75 376.34 651.46 372.01 497.5 333.03 491.44 330.42 469.39 281.26 475.21 279.03 456.34 116.86 475.54"/><polygon id="building-floor-5-hope" class="cls-1" points="614.32 461.17 723.16 448.29 717.12 397.24 694.88 399.88 679.24 267.8 701.49 265.17 694.3 204.49 570.17 219.18 576.89 275.98 564.28 277.48 566.86 299.23 588.8 296.63 598.02 375.39 614.5 373.34 618.76 408.48 608.43 409.7 614.32 461.17"/><polygon id="building-floor-5-glass" class="cls-1" points="480.21 230.74 479.05 221 556.11 216.11 556.56 219.88 559.14 219.58 560.67 232.49 571.59 231.2 576.89 275.98 564.28 277.48 566.86 299.23 568.82 315.81 515.19 322.16 513.76 310.04 488.93 312.98 487.37 299.77 494.02 298.98 485.88 230.16 480.21 230.74"/><polygon id="building-floor-5-clark" class="cls-1" points="464.62 232.58 463.17 220.37 436.56 223.51 436.95 226.89 408.65 230.24 411.06 250.6 393.68 252.66 398.3 291.68 414.89 289.72 417.86 314.85 445.27 311.6 445.74 315.57 471.96 312.47 470.69 301.75 487.37 299.77 494.02 298.98 485.88 230.16 480.21 230.74 464.62 232.58"/><polygon id="building-floor-5-hamilton" class="cls-1" points="342.99 778.96 288.57 785.4 287.87 779.45 266.81 781.94 268.39 795.24 221.62 800.78 223.26 814.68 191.78 818.41 188.32 789.21 174.52 790.85 170.87 759.96 167.59 760.35 163.31 724.2 179.99 722.23 179.77 720.34 189.5 719.19 185.09 681.95 190.06 681.36 188.85 671.13 281.8 660.13 286.8 702.34 291.02 700.63 302.69 728.55 336.55 724.54 342.99 778.96"/><polygon id="building-floor-5-gazebo" class="cls-1" points="332.4 255.58 352.57 254.1 356.06 292.96 335.48 294.39 332.4 255.58"/><polygon id="building-floor-5-211" class="cls-1" points="949.46 355.85 966.46 392.2 990.03 381.25 993.57 388.99 1004.25 384 1010.76 386.25 1018.13 382.96 1020.48 376.44 1030.84 371.29 1024.75 358.11 1061.66 340.65 1050.18 316.03 1047.11 317.3 1040.63 304.27 1043.97 302.67 1035.8 285.51 998.5 303.02 992.5 290.64 948.49 311.05 965.84 347.87 949.46 355.85"/><polygon id="building-floor-5-baker" class="cls-1" points="854.69 158.32 868.88 187.15 879.37 182.18 893.36 210.23 895.91 208.82 897.57 210.04 899.35 210.63 901.17 210.72 910.88 205.94 911.34 203.88 911.48 202.55 911.4 201.85 926.57 193.91 928 195.76 929.74 197.67 932.35 200.18 935.86 201.78 940.11 202.78 944 202.53 947.31 201.53 950.42 199.75 952.43 197.1 954.22 194.37 955.25 191.22 955.56 187.87 955.23 185.09 954.48 182.15 953.65 180.24 988.34 162.74 963.95 114.07 924.29 133.77 924.09 132.08 918.96 127.85 911.97 128.38 911.23 129.77 903.8 115.55 890.92 111.33 864.8 124.59 863.47 128.68 856.6 129.39 852.53 134.1 853.04 140.99 857.89 145.35 864.08 144.92 867.82 151.83 854.69 158.32"/><polygon id="building-floor-5-carriage" class="cls-1" points="1084.03 158.76 1072.45 161.34 1069.8 163.57 1068.23 165.67 1066.6 168.88 1067.01 172.36 1068.01 175.66 1070.34 178.31 1072.94 179.91 1080.02 212.51 1081 212.29 1087.62 243.53 1138 232.73 1120.39 151.14 1104.29 154.65 1104.98 157.09 1084.79 161.79 1084.03 158.76"/><g id="boundaries"><polyline class="cls-2" points="0.5 2.96 0.5 0.5 3.54 0.5"/><polyline class="cls-2" points="1472.14 857.86 1475.53 857.86 1475.53 854.47"/></g></g></g></g></g></svg>