<svg xmlns="http://www.w3.org/2000/svg" viewBox="0 0 1476.03 858.36"><defs><style>.cls-1{fill:red;fill-opacity:0.1;stroke:red;stroke-width:0.25px;}.cls-1,.cls-2{stroke-miterlimit:10;}.cls-2{fill:none;stroke:#000;}</style></defs><g id="Layer_2" data-name="Layer 2"><g id="Layer_2-2" data-name="Layer 2"><g id="floor-6"><g id="building-floor-6"><polygon id="building-floor-6-fab" class="cls-1" points="781.01 436.81 791.84 516.39 807.03 514.59 808.65 518.02 856.25 510.07 853.92 504.91 862.24 503.72 863.94 486.61 862.37 472.49 857.19 456.79 845.87 458.13 842.31 428.95 781.01 436.81"/><polygon id="building-floor-6-gazebo" class="cls-1" points="332.4 255.58 352.57 254.1 356.06 292.96 335.48 294.39 332.4 255.58"/><polygon id="building-floor-6-baker" class="cls-1" points="854.69 158.32 868.88 187.15 879.37 182.18 893.36 210.23 895.91 208.82 897.57 210.04 899.35 210.63 901.17 210.72 910.88 205.94 911.34 203.88 911.48 202.55 911.4 201.85 926.57 193.91 928 195.76 929.74 197.67 932.35 200.18 935.86 201.78 940.11 202.78 944 202.53 947.31 201.53 950.42 199.75 952.43 197.1 954.22 194.37 955.25 191.22 955.56 187.87 955.23 185.09 954.48 182.15 953.65 180.24 988.34 162.74 963.95 114.07 924.29 133.77 924.09 132.08 918.96 127.85 911.97 128.38 911.23 129.77 903.8 115.55 890.92 111.33 864.8 124.59 863.47 128.68 856.6 129.39 852.53 134.1 853.04 140.99 857.89 145.35 864.08 144.92 867.82 151.83 854.69 158.32"/><polygon id="building-floor-6-carriage" class="cls-1" points="1084.03 158.76 1072.45 161.34 1069.8 163.57 1068.23 165.67 1066.6 168.88 1067.01 172.36 1068.01 175.66 1070.34 178.31 1072.94 179.91 1080.02 212.51 1081 212.29 1087.62 243.53 1138 232.73 1120.39 151.14 1104.29 154.65 1104.98 157.09 1084.79 161.79 1084.03 158.76"/><g id="boundaries"><polyline class="cls-2" points="0.5 2.96 0.5 0.5 3.54 0.5"/><polyline class="cls-2" points="1472.14 857.86 1475.53 857.86 1475.53 854.47"/></g></g></g></g></g></svg>