<svg xmlns="http://www.w3.org/2000/svg" viewBox="0 0 1476.03 858.36"><defs><style>.cls-1,.cls-2{fill:none;stroke-miterlimit:10;}.cls-1{stroke:#99e800;}.cls-2{stroke:#000;}</style></defs><g id="Layer_2" data-name="Layer 2"><g id="Layer_2-2" data-name="Layer 2"><g id="floor-6"><g id="fence-floor-6"><polyline class="cls-1" points="408.65 230.24 406.92 215.58 104.31 245.24 97.04 248.11 90.87 253.66 87.61 261.09 86.07 268.88 99.59 420.96 172.12 412.37 178.73 468.22"/><polyline class="cls-1" points="95.91 379.54 141.49 374.14 146.38 415.42"/><polyline class="cls-1" points="402.34 758.54 375.24 761.75 341.43 765.75"/><polyline class="cls-1" points="694.29 204.39 692.6 190.07 699.02 189.31"/><polyline class="cls-1" points="711.07 188.31 724.72 186.69 784.07 307.75"/><polyline class="cls-1" points="791.45 322.19 831.86 407 842.31 428.95"/><polyline class="cls-1" points="811.16 749.63 817.75 763.17 936.89 749.07 938.94 742.16"/><polyline class="cls-1" points="691.03 594.03 663.29 597.31 631.67 601.05"/><polyline class="cls-1" points="804.53 661.5 786.03 626.23 687.72 637.87 677.31 676.56"/><polyline class="cls-1" points="676.64 617.02 714.01 612.6 716.6 634.45"/><polyline class="cls-1" points="670.35 617.77 666.21 618.26 662.07 618.75"/><polyline class="cls-1" points="769.04 628.24 764.16 587.03 777.4 585.46"/><polyline class="cls-1" points="769.23 516.41 755.56 514.34 746.61 438.7"/><polyline class="cls-1" points="722.37 441.57 726.71 441.05 731.05 440.54"/><polyline class="cls-1" points="742.53 439.18 748.7 438.45 753.23 437.91"/><polyline class="cls-1" points="768.57 436.1 781.92 434.52 782.17 436.66"/><polyline class="cls-1" points="1036.16 595.52 1085.43 699.9 1097.95 696.02 1108.6 695.21 1119.36 698.18 1129.91 701.3 1144.37 703.39 1161.28 704.52 1175.06 703.68 1189.56 701.4 1203.09 698.57 1214.85 694.83 1225.6 690.2 1239.23 683.44 1253.51 677.38 1262.06 674.02 1281.5 666.24 1301.45 659.85 1322.69 654.99 1344.36 651.86 1353.41 650.79 1315.75 482.44 1081.93 575.74 1065.08 577.06 1053.82 570.78 1045.21 558.6 1025.1 502.05 1022.64 498.84 1018.03 498.12 994.96 507.4 1031.01 585.12"/><polyline class="cls-1" points="932.35 200.18 947.11 228.17 967.35 266.56"/><polyline class="cls-1" points="1068.23 165.67 1064.16 166.15 1049.71 99.39"/><polyline class="cls-1" points="1048.09 92.73 1041.92 67.58 952.65 84.69"/><polyline class="cls-1" points="947.11 86.1 932.79 89.22 943.6 118.49"/><polyline class="cls-1" points="438.09 516.5 489.04 510.47 502.85 488.69 559.29 482.01 561.64 501.88 577.25 500.03 578.17 507.74"/><polyline class="cls-1" points="785.41 469.1 781.03 469.62 786.28 513.97 791.25 513.38"/><polyline class="cls-1" points="558.07 636.18 556.82 625.63 597.48 620.82"/><polyline class="cls-1" points="174.52 790.85 134.87 795.54 121.09 679.15 140.69 676.83"/><g id="boundaries"><polyline class="cls-2" points="0.5 2.96 0.5 0.5 3.54 0.5"/><polyline class="cls-2" points="1472.14 857.86 1475.53 857.86 1475.53 854.47"/></g></g></g></g></g></svg>