<svg xmlns="http://www.w3.org/2000/svg" viewBox="0 0 1476.03 858.36"><defs><style>.cls-1,.cls-5{fill:#919191;}.cls-1,.cls-2,.cls-3,.cls-4{stroke:#a0efb5;}.cls-1,.cls-2,.cls-3,.cls-4,.cls-5,.cls-6{stroke-miterlimit:10;}.cls-2{fill:#94ffbb;}.cls-2,.cls-3,.cls-4{opacity:0.5;}.cls-3{fill:#fff536;}.cls-4{fill:#f99595;}.cls-5{stroke:#b9e6cf;}.cls-6{fill:none;stroke:#000;}</style></defs><g id="Layer_2" data-name="Layer 2"><g id="Layer_2-2" data-name="Layer 2"><g id="floor-6"><g id="landcover-floor-6"><polygon class="cls-1" points="178.73 468.22 172.12 412.37 166.17 362.11 323.26 343.52 328.1 343.73 334.52 347.89 336.99 353.14 338.13 360.89 339.79 374.9 341.37 384 343.22 390.16 346.26 396.96 349.44 403.08 352.85 409.16 354.69 415.21 356.55 423.38 356.22 434.79 353.38 444.79 345.87 456.09 336.48 466.26 330.42 469.39 281.26 475.21 279.03 456.34 178.73 468.22"/><polygon class="cls-2" points="352.57 254.1 348.68 221.28 259.6 230.02 260.63 238.76 326.73 285.38 334.72 284.82 332.4 255.58 352.57 254.1"/><polygon class="cls-3" points="172.12 412.37 178.73 468.22 116.86 475.54 102.89 477.19 99.59 420.96 172.12 412.37"/><polygon class="cls-2" points="102.89 477.19 121.09 679.15 140.69 676.83 116.86 475.54 102.89 477.19"/><polygon class="cls-2" points="141.63 689.15 185.34 683.98 189.5 719.19 179.77 720.34 179.99 722.23 163.31 724.2 164.89 737.53 153.78 738.85 151.69 721.19 150.36 715.64 147.51 710.5 143.68 702.11 142.26 694.45 141.63 689.15"/><polygon class="cls-2" points="133.69 690.09 122.54 691.41 140.38 842.14 228.3 831.73 226.64 817.66 222.69 818.13 222.29 814.8 191.78 818.41 188.32 789.21 174.52 790.85 170.87 759.96 167.59 760.35 165.91 746.17 147.49 748.35 144.93 726.75 144.1 721.81 142.24 716.74 139.1 711.49 136.65 705.66 134.95 698.39 133.69 690.09"/><polygon class="cls-3" points="121.09 679.15 122.54 691.41 133.69 690.09 134.95 698.39 136.65 705.66 139.1 711.49 142.24 716.74 144.1 721.81 147.49 748.35 165.91 746.17 164.89 737.53 153.78 738.85 151.69 721.19 150.36 715.64 147.51 710.5 143.68 702.11 142.26 694.45 141.63 689.15 185.34 683.98 185.09 681.95 190.06 681.36 188.85 671.13 121.09 679.15"/><polygon class="cls-3" points="228.3 831.73 293.15 824.06 288.57 785.4 287.87 779.45 275.73 780.88 279.69 814.35 245.69 818.37 245.35 815.45 226.64 817.66 228.3 831.73"/><polygon class="cls-2" points="319.64 719.44 318.16 726.72 336.55 724.54 341.43 765.75 342.99 778.96 288.57 785.4 293.15 824.06 325.09 820.27 332.55 818.08 339.47 814.15 344.71 809.51 351.44 798.3 347.5 765.03 341.8 716.82 319.64 719.44"/><polygon class="cls-4" points="318.16 726.72 302.69 728.55 298.1 717.57 293.95 707.64 291.02 700.63 286.8 702.34 281.8 660.13 294.81 658.59 292.56 639.62 313.72 637.12 315.55 645.66 316.86 651.77 321.58 673.75 323.93 672.79 326.77 679.91 328.88 681.65 334.37 682 341.3 682.12 350.36 679.89 358.53 675.21 366.42 667.47 368.49 663.25 365.5 655.87 376.34 651.46 375.62 625.85 384.15 623.08 385.2 608.94 385.56 593.86 383.74 573.45 381.65 555.82 373.53 551.71 372.01 497.5 345.03 493.31 334.43 491.66 333.03 491.44 330.42 469.39 336.48 466.26 345.87 456.09 353.38 444.79 356.22 434.79 356.55 423.38 354.69 415.21 352.85 409.16 349.44 403.08 346.26 396.96 343.22 390.16 341.37 384 339.79 374.9 338.13 360.89 336.99 353.14 334.52 347.89 328.1 343.73 323.26 343.52 332.89 337.9 338.18 333.45 347.76 323.61 354.43 312.87 356.43 306.14 356.85 299.6 356.06 292.96 352.57 254.1 348.68 221.28 406.92 215.58 408.65 230.24 411.06 250.6 393.68 252.66 398.3 291.68 406.3 290.74 408.01 305.18 390.58 307.24 382.29 237.18 377.65 237.73 379.08 250.51 382.72 281.29 381.98 289.89 381.84 299.36 376.3 324.85 370.52 337.7 367.03 350.03 367.41 361.06 372.58 368.59 377.47 368.77 381.11 365.48 387.29 370.96 395 383.56 391.25 387.61 388.43 393.09 386.77 399.89 385.9 407.6 386.67 416.01 388.39 423.98 392.05 431.26 396.39 437.69 402.08 443.17 408.65 447.65 416.59 451.41 424.24 453.64 432.19 454.6 439.86 454.25 450.96 451.59 456.82 449.11 459.55 456.06 454.25 458.59 449.23 461.53 443.23 466.61 439.64 472.74 437.99 478.08 433.34 476.33 426.59 477.29 421.6 480.69 418.53 486.7 418.31 493.33 420.16 499.54 416.89 504.97 415.2 512.44 416 519.17 438.09 516.5 489.04 510.47 502.85 488.69 559.29 482.01 561.64 501.88 577.25 500.03 578.17 507.74 432.06 525.03 425.1 525.86 421.6 528.26 419.95 534.17 427.09 594.43 423.5 594.72 421.72 607.82 420.53 619.85 419.78 633.78 419.68 647.14 419.68 650.16 414.9 648.91 412.49 659.33 410.37 668.48 407.03 684.48 405.36 695.86 403.49 712.39 402.26 729.25 402.25 748.69 402.34 758.54 402.48 771.92 405.31 791.93 408.75 797.28 412.92 801.38 418.7 804.83 426.54 807.71 437.01 809.49 325.09 820.27 332.55 818.08 339.47 814.15 344.71 809.51 351.44 798.3 347.5 765.03 341.8 716.82 319.64 719.44 318.16 726.72"/><polygon class="cls-2" points="245.35 815.45 245.69 818.37 279.69 814.35 275.73 780.88 266.81 781.94 270.43 812.48 245.35 815.45"/><polygon class="cls-2" points="323.93 672.79 326.77 679.91 328.88 681.65 334.37 682 341.3 682.12 350.36 679.89 358.53 675.21 366.42 667.47 368.49 663.25 365.5 655.87 323.93 672.79"/><polygon class="cls-2" points="373.53 551.71 381.65 555.82 383.74 573.45 385.56 593.86 385.2 608.94 384.15 623.08 375.62 625.85 373.53 551.71"/><polygon class="cls-2" points="425.1 525.86 421.6 528.26 419.95 534.17 427.09 594.43 439.65 593.41 437.56 575.74 434.78 576.07 432.94 560.48 435.72 560.15 434.86 548.67 432.06 525.03 425.1 525.86"/><polygon class="cls-2" points="141.49 374.14 146.38 415.42 99.59 420.96 95.91 379.54 141.49 374.14"/><polygon class="cls-2" points="379.08 250.51 377.65 237.73 382.29 237.18 390.58 307.24 408.01 305.18 406.3 290.74 414.89 289.72 417.86 314.85 419.73 314.62 423.61 347.36 424.62 365.12 419.62 375.36 415.07 383 406.42 386.49 399.96 386.5 395 383.56 393.96 376.27 394.9 370.73 392.56 367.48 393.28 364.55 397.88 362.77 401.25 358.68 402.31 354.36 401.38 349.32 403.13 345.2 404.35 343.21 401.83 339.48 402.53 336.88 401.07 334.93 400.06 332.98 402.61 328.98 402.97 324.52 400.06 321.45 390.1 314.57 384 307.66 381.84 299.36 381.98 289.89 382.72 281.29 379.08 250.51"/><polygon class="cls-2" points="376.3 324.85 380.5 324.94 386.81 330.74 391.9 335.4 395.11 341.25 393.75 348.21 396.39 352.09 392.02 356.98 387.77 360.08 382.28 361.9 381.11 365.48 377.47 368.77 372.58 368.59 367.41 361.06 367.03 350.03 370.52 337.7 376.3 324.85"/><polygon class="cls-3" points="381.84 299.36 376.3 324.85 380.5 324.94 391.9 335.4 395.11 341.25 393.75 348.21 396.39 352.09 392.02 356.98 387.77 360.08 382.28 361.9 381.11 365.48 387.29 370.96 395 383.56 393.96 376.27 394.9 370.73 392.56 367.48 393.28 364.55 397.88 362.77 401.25 358.68 402.31 354.36 401.38 349.32 403.13 345.2 404.35 343.21 401.83 339.48 402.53 336.88 401.07 334.93 400.06 332.98 402.61 328.98 402.97 324.52 400.06 321.45 390.1 314.57 384 307.66 381.84 299.36"/><polygon class="cls-3" points="469.55 312.76 473.18 343.44 549.23 334.44 562.05 442.8 611.58 436.94 608.36 409.71 618.76 408.48 614.6 373.33 598.01 375.29 588.7 296.64 566.86 299.23 568.82 315.81 519.39 321.66 515.15 285.9 492.79 288.55 494.02 298.98 487.37 299.77 488.64 310.5 469.55 312.76"/><polygon class="cls-2" points="416 519.17 415.2 512.44 416.89 504.97 420.16 499.54 422.82 502.7 426.37 504.96 429.81 505.95 434.06 505.73 438.96 504.76 446.84 510.82 485.63 506.23 499.82 484.39 563.93 476.8 568.05 477.37 571.98 479.34 575.23 482.9 577.49 486.15 579.04 491.51 580.02 499.76 577.25 500.03 561.64 501.88 559.29 482.01 502.85 488.69 489.04 510.47 416 519.17"/><polygon class="cls-5" points="499.82 484.39 498.6 474.04 495.42 466.13 492.32 462.58 485.55 458.35 476.96 454.78 470.06 454.14 459.55 456.06 454.25 458.59 449.23 461.53 443.23 466.61 439.64 472.74 437.99 478.08 433.34 476.33 426.59 477.29 421.6 480.69 418.53 486.7 418.31 493.33 420.16 499.54 422.82 502.7 426.37 504.96 429.81 505.95 434.06 505.73 438.96 504.76 446.84 510.82 485.63 506.23 499.82 484.39"/><polygon class="cls-2" points="456.82 449.11 459.55 456.06 470.06 454.14 476.96 454.78 485.55 458.35 492.32 462.58 495.42 466.13 507.44 455.18 501.07 450.47 493.57 446.66 484.53 444.04 475.64 443.64 464.86 444.91 456.82 449.11"/><polygon class="cls-4" points="613.02 449.08 608.82 449.58 606.74 450.89 605.55 453.66 607.19 467.45 609.2 470.23 612.45 470.35 653.78 465.46 654.33 470.18 674.42 467.8 673.85 463.03 703.85 459.48 708.38 459.82 711.67 461.21 713.83 463.36 715.64 466.53 717.12 470.55 722.22 513.67 723.48 516.5 726.5 517.94 738.67 516.5 755.58 514.5 764.16 587.03 764.23 587.6 755.29 588.66 752.61 590.1 752.19 593.17 753.65 605.53 753.21 607.96 750.39 609.16 726.28 612.01 723.55 611.16 722.37 608.28 721.87 604.06 706.86 605.8 692.63 607.49 691.03 594.03 684.59 587.29 680.02 584.14 674.53 581.27 669.5 579.85 662.29 578.97 654.73 579.86 646.72 583.05 638.79 589.25 633.65 596.51 631.67 601.05 584.28 606.66 586.11 622.16 541.63 627.43 542.87 637.89 527.7 639.69 527.28 636.11 530.15 635.67 528 618.43 526.4 605.53 525.95 601.93 565.99 597.24 610.48 592.03 613.96 588.49 620.5 578.54 625.99 564.36 627.02 551.37 625.73 540.44 620.99 529.7 615.16 519.21 608.78 511.81 600.29 505.12 578.17 507.74 577.25 500.03 580.02 499.76 579.04 491.51 577.49 486.15 575.23 482.9 571.98 479.34 568.05 477.37 563.93 476.8 499.82 484.39 498.6 474.04 495.42 466.13 507.44 455.18 513.7 458.88 520.51 461.6 526.86 462.8 535.57 462.67 543.7 460.87 551.39 456.43 556.16 450.89 562.05 442.8 611.58 436.94 613.02 449.08"/><polygon class="cls-3" points="755.58 514.5 769.23 516.41 777.4 585.46 764.16 587.03 755.58 514.5"/><polygon class="cls-3" points="691.03 594.03 631.67 601.05 584.28 606.66 586.11 622.16 541.63 627.43 542.87 637.89 598.76 631.68 623.68 628.73 622.96 622.67 633.18 610.29 648.97 608.42 667.64 606.21 669.02 617.92 662.07 618.75 663.78 634.86 653.61 647.64 657.35 679.22 804.53 661.5 786.03 626.23 716.52 634.48 714.01 612.6 676.64 617.02 675.75 609.49 692.63 607.49 691.03 594.03"/><polygon class="cls-4" points="827.98 403.26 825.17 400.11 820.41 397.24 815.34 396.94 809.94 397.58 804.93 401.14 802.75 404.42 801.66 408.52 801.9 410.56 797.68 413.18 794.86 414.81 787.39 416.98 781.27 417.7 773.12 417.38 764.11 415.98 756.09 413.41 748.05 409.32 741.69 405.21 738.13 401.94 735.55 395.11 734.93 389.87 723.31 391.25 729.17 440.76 746.61 438.7 755.58 514.5 769.23 516.41 777.4 585.46 764.16 587.03 769.04 628.24 786.03 626.23 804.53 661.5 821.47 659.5 829.8 654.36 794.79 584.86 794.11 580.99 795 577.25 797.75 574.4 800.67 572.1 800.12 570.99 817.34 553.14 823.04 546.83 818.74 538.23 812.56 525.84 807.03 514.59 791.84 516.39 791.43 513.36 786.28 513.97 781.03 469.62 778.25 446.08 769.87 447.08 768.57 436.1 768.31 433.95 769.08 431.9 771.66 429.63 779.27 427.73 787.37 425.99 796.62 423.3 802.96 419.44 805.85 421.87 808.99 423.59 812.14 424.35 816.32 424.61 820.53 423.65 824.33 422.07 827.12 419.06 829.56 415.2 830.28 411.72 829.75 407.25 827.98 403.26"/><polygon class="cls-3" points="723.31 391.25 722.2 381.82 721.9 379.3 733.51 377.93 734.93 389.87 723.31 391.25"/><polygon class="cls-4" points="721.9 379.3 717.13 338.97 716.04 336.63 714.2 335.4 711.63 313.66 712.78 312.8 713.78 310.67 699.41 189.27 711.07 188.31 726.02 314.62 772.39 309.14 773.63 306.33 776.15 303.06 778.77 300.63 780.18 299.83 784.07 307.75 791.45 322.19 796.14 332.05 791.88 332.98 786.77 332.83 782.18 331.08 777.89 328.17 775.01 325.35 727.95 330.92 733.51 377.93 721.9 379.3"/><polygon class="cls-3" points="733.13 374.67 772.27 370.04 778.14 370.69 783.75 371.98 791.64 374.88 798.83 379.57 803.98 384.16 807.54 388.69 809.23 392.35 809.85 397.59 815.34 396.94 820.41 397.24 822.23 398.34 821.72 393.98 819.2 388.65 816.52 384.44 811.29 378.51 805.38 372.58 797.4 367.57 790.45 364.78 780.74 362.16 772.07 361.5 732.13 366.23 733.13 374.67"/><polygon class="cls-3" points="857.19 456.79 845.87 458.13 842.31 428.95 857.19 456.79"/><polygon class="cls-2" points="862.24 503.72 881.74 501.42 999.35 734.51 992.43 741.24 937.28 747.76 938.94 742.16 970.92 738.78 984.04 724.54 968.52 692.94 956.86 694.02 938.05 656.77 946.21 648.26 886.55 528.74 867.48 531 856.25 510.07 853.92 504.91 862.24 503.72"/><polygon class="cls-2" points="814.45 756.4 803.63 757.68 804.62 765.98 636.87 785.84 630.59 732.74 631.55 732.63 649.82 768.73 723.79 759.87 724.4 765.04 776.13 758.81 775.54 753.85 811.16 749.63 814.45 756.4"/><polygon class="cls-2" points="619.7 734.03 625.98 787.12 546.17 796.57 541.65 758.37 613.35 749.88 611.59 734.99 619.7 734.03"/><polygon class="cls-2" points="692.6 190.07 568.67 204.74 570.17 219.18 694.3 204.49 692.6 190.07"/><polygon class="cls-2" points="529 798.6 523.55 752.56 519.64 753.02 520.19 757.6 402.48 771.92 405.31 791.93 408.75 797.28 412.92 801.38 418.7 804.83 426.54 807.71 437.01 809.49 529 798.6"/><polygon class="cls-3" points="529 798.6 546.17 796.57 541.65 758.37 540.72 750.52 523.55 752.56 529 798.6"/><polygon class="cls-3" points="625.98 787.12 636.87 785.84 630.59 732.74 625.98 733.28 619.7 734.03 625.98 787.12"/><polygon class="cls-3" points="804.62 765.98 817.9 764.41 817.75 763.17 936.89 749.07 938.94 742.16 887.66 747.42 881.55 734.96 833.56 740.43 832.02 747.16 811.16 749.63 814.45 756.4 803.63 757.68 804.62 765.98"/><polygon class="cls-2" points="600.29 505.12 608.78 511.81 615.16 519.21 620.99 529.7 625.73 540.44 627.02 551.37 625.99 564.36 620.5 578.54 613.96 588.49 610.48 592.03 607.95 570.68 609.34 570.51 604.11 526.32 602.82 526.47 600.29 505.12"/><polygon class="cls-2" points="653.78 465.46 652.73 456.62 614.32 461.17 612.89 449.1 608.82 449.58 606.74 450.89 605.55 453.66 607.19 467.45 609.2 470.23 612.45 470.35 653.78 465.46"/><polygon class="cls-2" points="673.85 463.03 672.81 454.25 723.16 448.29 722.37 441.57 709.86 335.92 714.2 335.4 716.04 336.63 717.13 338.97 729.17 440.76 724.65 441.3 728.88 443.45 730.29 445.73 738.67 516.5 726.5 517.94 723.48 516.5 722.22 513.67 717.12 470.55 715.64 466.53 713.83 463.36 711.67 461.21 708.38 459.82 703.85 459.48 673.85 463.03"/><polygon class="cls-3" points="738.67 516.5 755.58 514.5 746.61 438.7 724.65 441.3 728.88 443.45 730.29 445.73 738.67 516.5"/><polygon class="cls-3" points="791.43 513.36 786.28 513.97 781.03 469.62 778.25 446.08 769.87 447.08 768.57 436.1 781.92 434.52 782.17 436.66 781.01 436.81 791.43 513.36"/><polygon class="cls-2" points="631.67 601.05 633.65 596.51 638.79 589.25 646.72 583.05 654.73 579.86 662.29 578.97 669.5 579.85 674.53 581.27 680.02 584.14 684.59 587.29 691.03 594.03 631.67 601.05"/><polygon class="cls-2" points="648.97 608.42 667.64 606.21 669.02 617.92 662.07 618.75 661.99 618.05 648.97 608.42"/><polygon class="cls-2" points="675.75 609.49 676.64 617.02 714.01 612.6 716.52 634.48 769.04 628.24 764.23 587.6 755.29 588.66 752.61 590.1 752.19 593.17 753.65 605.53 753.21 607.96 750.39 609.16 726.28 612.01 723.55 611.16 722.37 608.28 721.87 604.06 675.75 609.49"/><polygon class="cls-2" points="800.67 572.1 797.75 574.4 795 577.25 794.11 580.99 794.79 584.86 829.8 654.36 821.47 659.5 824.15 664.31 845.46 662.29 800.67 572.1"/><polygon class="cls-2" points="733.13 374.67 734.05 382.45 735.55 395.11 738.13 401.94 741.69 405.21 748.05 409.32 756.09 413.41 764.11 415.98 773.12 417.38 781.27 417.7 787.39 416.98 794.86 414.81 797.68 413.18 801.9 410.56 801.66 408.52 802.75 404.42 804.93 401.14 809.85 397.59 809.23 392.35 807.54 388.69 803.98 384.16 798.83 379.57 791.64 374.88 783.75 371.98 778.14 370.69 772.27 370.04 733.13 374.67"/><polygon class="cls-2" points="768.57 436.1 768.31 433.95 769.08 431.9 771.66 429.63 779.27 427.73 787.37 425.99 796.62 423.3 802.96 419.44 805.85 421.87 808.99 423.59 812.14 424.35 816.32 424.61 820.53 423.65 824.33 422.07 827.12 419.06 829.56 415.2 830.28 411.72 829.75 407.25 827.98 403.26 825.17 400.11 822.23 398.34 821.72 393.98 819.2 388.65 816.52 384.44 811.29 378.51 805.38 372.58 797.4 367.57 790.45 364.78 780.74 362.16 772.07 361.5 732.13 366.23 727.95 330.92 775.01 325.35 777.89 328.17 782.18 331.08 786.77 332.83 791.88 332.98 796.14 332.05 842.31 428.95 782.17 436.66 781.92 434.52 768.57 436.1"/><polygon class="cls-2" points="780.18 299.83 778.77 300.63 776.15 303.06 773.63 306.33 772.39 309.14 726.02 314.62 711.07 188.31 724.72 186.69 780.18 299.83"/><polygon class="cls-2" points="711.63 313.66 712.78 312.8 713.78 310.67 699.41 189.27 692.6 190.07 694.3 204.49 707.29 314.18 711.63 313.66"/><polygon class="cls-2" points="436.75 312.61 440.38 343.31 472.71 339.48 469.55 312.76 445.69 315.58 445.27 311.6 436.75 312.61"/><polygon class="cls-2" points="1031.01 585.12 1028.65 586.11 1025.3 585.79 990.77 515.48 990.28 511.39 991.62 508.97 994.96 507.4 1018.03 498.12 1022.64 498.84 1025.1 502.05 1045.21 558.6 1053.82 570.78 1065.08 577.06 1081.93 575.74 1315.75 482.44 1316.99 488.01 1223.58 524.73 1222.07 527.54 1223.36 533.26 1224.93 542.25 1224.12 548.22 1220.71 554.38 1214.88 559.5 1208.89 563.23 1202.84 565 1196.74 565 1190.23 563.87 1180.92 561.78 1172.67 562.53 1163.36 563.24 1154.61 566.63 1146.87 570.73 1136.53 577.66 1132.24 583.21 1126.04 590.4 1117.65 596.77 1107.08 599.65 1094.67 601.12 1086.36 596.86 1078.52 592.33 1068.83 587.02 1059.64 583.83 1051.55 582.85 1040.81 583.54 1031.01 585.12"/><polygon class="cls-2" points="1036.16 595.52 1032.84 598.22 1032.34 602.97 1092.65 728.03 1364.34 667.51 1308.83 399.85 1436.92 371.37 1396.02 181.75 1138 232.73 1133.1 233.78 1135.26 243.61 1137.2 245.84 1140.91 245.96 1353.63 199.86 1360.82 226.53 1365.17 230.72 1393.88 225.14 1424.38 366.53 1286.96 396.56 1282.51 401.62 1283.23 407.24 1315.75 482.44 1349.37 632.74 1262.8 651.89 1253.15 654.49 1239.72 661.11 1227.95 669.44 1220.81 677.11 1212.39 682.59 1197.29 690.19 1185.79 694.13 1170.64 695.7 1157.94 694.29 1140.33 690.08 1127.84 682.86 1117.78 675.43 1109.61 666.44 1101.49 654.57 1095.38 642.62 1093.21 628.52 1089.59 617.79 1082.37 607.15 1071.09 598.33 1057.67 593.38 1044.09 592.83 1036.16 595.52"/><polygon class="cls-3" points="1025.3 585.79 1032.34 602.97 1032.84 598.22 1036.16 595.52 1044.09 592.83 1057.67 593.38 1071.09 598.33 1082.37 607.15 1089.59 617.79 1093.21 628.52 1095.38 642.62 1101.49 654.57 1109.61 666.44 1117.78 675.43 1127.84 682.86 1140.33 690.08 1157.94 694.29 1170.64 695.7 1185.79 694.13 1197.29 690.19 1212.39 682.59 1220.81 677.11 1227.95 669.44 1239.72 661.11 1253.15 654.49 1262.8 651.89 1234.17 520.57 1223.58 524.73 1222.07 527.54 1223.36 533.26 1224.93 542.25 1224.12 548.22 1220.71 554.38 1214.88 559.5 1208.89 563.23 1202.84 565 1203.86 573.61 1213.89 574.21 1222.87 579.19 1230.39 585.06 1236.71 597.81 1239.16 608.14 1239.95 618.57 1238.33 629.5 1235.38 639.59 1232.23 647.9 1227.13 656.79 1220.92 664.6 1212.82 671.35 1204.95 677.14 1194.61 681.22 1182.89 685.04 1172.05 686.33 1160.96 684.78 1149.99 682.14 1140.45 678.15 1131.8 673.8 1124.19 666.98 1118.13 661.07 1112.58 653.92 1109.34 648.52 1106.73 642.11 1105.66 633.01 1106.91 625.9 1110.2 618.96 1116.89 610.2 1126.49 604.36 1117.65 596.77 1107.08 599.65 1094.67 601.12 1086.36 596.86 1078.52 592.33 1068.83 587.02 1059.64 583.83 1051.55 582.85 1040.81 583.54 1031.01 585.12 1028.65 586.11 1025.3 585.79"/><polygon class="cls-3" points="1117.65 596.77 1126.04 590.4 1132.24 583.21 1136.53 577.66 1146.87 570.73 1154.61 566.63 1163.36 563.24 1180.92 561.78 1196.74 565 1202.84 565 1203.86 573.61 1196.17 577.65 1172.39 593.22 1157.51 598.9 1145.81 601.18 1135.63 602.16 1126.49 604.36 1117.65 596.77"/><polygon class="cls-2" points="976.9 478.35 973.09 478.63 969.86 476.95 951.56 440.62 951.93 434.54 957.94 430.72 988.15 419.42 1003.42 456.97 1004.05 462.27 1001.25 466.21 976.9 478.35"/><polygon class="cls-2" points="942.99 422.84 946.73 425.58 952.96 425.3 1088.82 371.17 1078.03 343.31 1056.82 351.8 1023.87 367.22 1025.23 370.06 1018.94 372.86 1019.83 375.06 1017.42 381.68 1010.76 384.94 1002.94 382.35 1002.04 380.44 996.04 383.25 992.62 375.6 968.21 387.04 954.42 357.77 956.9 356.63 956.07 354.89 947.82 358.71 918.96 372.48 942.99 422.84"/><polygon class="cls-2" points="944 350.17 914.48 364.13 887.25 306.33 889.71 302.35 892.89 296.6 897.65 294.28 907.56 290.75 918.96 288.57 934.19 286.76 944.75 286.69 955.53 287.68 972.25 287.21 988.76 284.84 1014.4 278.5 1029.28 273.94 1036.7 273.06 1048.88 275.2 1054.69 279.44 1074.09 331.57 1056.41 338.84 1034.76 292.82 1026.27 296.64 1025.14 294.44 1022.54 289.12 1019.7 282.96 990.74 296.27 954.11 313.05 955.44 315.94 940.15 322.98 951.02 346.7 944 350.17"/><polygon class="cls-2" points="876.49 286.32 889.75 287.77 902.86 283.2 913.61 280.47 939.54 277.4 951.83 278.19 965.92 278.08 980.57 276.01 1004.29 272.87 1021.97 267.65 1033.67 265.37 1048.88 266.25 1057.11 269.64 1099.92 254.72 1097.53 241.41 1087.62 243.53 1081 212.29 1080.02 212.51 1072.94 179.91 1070.34 178.31 1068.01 175.66 1067.01 172.36 1066.6 168.88 1068.23 165.67 1069.8 163.57 1072.45 161.34 1062.79 113.45 1065.93 109.72 1067.64 106.16 1067.84 100.77 1067.44 98.13 988.5 103.28 978.88 107.77 997.93 143.95 983 152.09 988.34 162.74 953.65 180.24 954.48 182.15 955.23 185.09 955.56 187.87 955.25 191.22 954.22 194.37 952.43 197.1 950.42 199.75 947.31 201.53 944 202.53 940.11 202.78 935.86 201.78 932.35 200.18 929.74 197.67 928 195.76 926.57 193.91 911.4 201.85 911.48 202.55 910.88 205.94 901.17 210.72 899.35 210.63 897.57 210.04 895.91 208.82 893.36 210.23 879.37 182.18 868.88 187.15 834.16 203.78 876.49 286.32"/><polygon class="cls-3" points="914.48 364.13 918.96 372.48 947.82 358.71 944 350.17 914.48 364.13"/><polygon class="cls-3" points="942.99 422.84 951.56 440.62 951.93 434.54 957.94 430.72 988.15 419.42 1100.5 376.28 1065.35 282.5 1098.72 269.53 1101.44 266.07 1101.12 261.41 1099.92 254.72 1057.11 269.64 1048.88 266.25 1033.67 265.37 1021.97 267.65 1004.29 272.87 965.92 278.08 939.54 277.4 913.61 280.47 902.86 283.2 889.75 287.77 876.49 286.32 887.25 306.33 892.89 296.6 897.65 294.28 907.56 290.75 918.96 288.57 934.19 286.76 944.75 286.69 955.53 287.68 972.25 287.21 988.76 284.84 1014.4 278.5 1029.28 273.94 1036.7 273.06 1048.88 275.2 1054.69 279.44 1074.09 331.57 1056.41 338.84 1051.61 341.09 1056.82 351.8 1078.03 343.31 1088.82 371.17 952.96 425.3 946.73 425.58 942.99 422.84"/><polygon class="cls-3" points="1067.44 98.13 1057.88 57.02 1086.14 51.36 1097.43 95.58 1101.74 100.78 1109.1 103.43 1120.39 151.14 1104.29 154.65 1104.98 157.09 1084.79 161.79 1084.03 158.76 1072.45 161.34 1062.79 113.45 1065.93 109.72 1067.64 106.16 1067.84 100.77 1067.44 98.13"/><polygon class="cls-3" points="1067.44 98.13 988.5 103.28 978.88 107.77 997.93 143.95 983 152.09 980.12 146.34 989.7 141.56 973.58 110.24 963.95 114.07 933.69 129.1 931.4 124.97 930.48 120.04 931.99 117.18 934.91 114.23 938.99 113.92 942.3 114.99 943.6 118.49 955.42 113.06 957.42 109.39 956.51 105.3 947.11 86.1 943.88 80.11 949.63 79.01 952.65 84.69 961.65 104.77 963.98 106.68 968.11 106.11 985.42 98.52 1048.09 92.73 1065.95 91.75 1067.44 98.13"/><polygon class="cls-2" points="820.48 174.01 796.1 122.56 794.9 115.28 798.58 110.23 865.95 98.06 876.62 118.59 864.8 124.59 863.47 128.68 856.6 129.39 852.53 134.1 853.04 140.99 857.89 145.35 864.08 144.92 867.82 151.83 854.69 158.32 820.48 174.01"/><polygon class="cls-3" points="820.48 174.01 834.16 203.78 868.88 187.15 854.69 158.32 820.48 174.01"/><polygon class="cls-3" points="865.95 98.06 876.62 118.59 883.35 115.18 873.43 96.33 865.95 98.06"/><polygon class="cls-2" points="873.43 96.33 943.88 80.11 956.51 105.3 957.42 109.39 955.42 113.06 943.6 118.49 942.3 114.99 938.99 113.92 934.91 114.23 931.99 117.18 930.48 120.04 931.4 124.97 933.69 129.1 924.29 133.77 924.09 132.08 918.96 127.85 911.97 128.38 911.23 129.77 903.8 115.55 890.92 111.33 883.35 115.18 873.43 96.33"/><polygon class="cls-2" points="949.63 79.01 1057.88 57.02 1065.95 91.75 1048.09 92.73 985.42 98.52 968.11 106.11 963.98 106.68 961.65 104.77 949.63 79.01"/><polygon class="cls-2" points="1086.14 51.36 1104.21 47.45 1123.05 147.04 1120.39 151.14 1109.1 103.43 1101.74 100.78 1097.43 95.58 1086.14 51.36"/><polygon class="cls-2" points="973.58 110.24 989.7 141.56 980.12 146.34 963.95 114.07 973.58 110.24"/><g id="boundaries"><polyline class="cls-6" points="0.5 2.96 0.5 0.5 3.54 0.5"/><polyline class="cls-6" points="1472.14 857.86 1475.53 857.86 1475.53 854.47"/></g></g></g></g></g></svg>