<svg xmlns="http://www.w3.org/2000/svg" viewBox="0 0 1476.03 858.36"><defs><style>.cls-1,.cls-2{fill:none;stroke-miterlimit:10;}.cls-1{stroke:#0097ce;}.cls-2{stroke:#000;}</style></defs><g id="Layer_2" data-name="Layer 2"><g id="Layer_2-2" data-name="Layer 2"><g id="floor-1"><g id="line-floor-1"><polyline id="line-floor-1-wall" class="cls-1" points="806.1 698.98 806.23 700.02 806.42 701.66"/><polyline id="line-floor-1-wall-2" data-name="line-floor-1-wall" class="cls-1" points="807.58 711.49 807.7 712.48 807.91 714.27"/><polyline id="line-floor-1-wall-3" data-name="line-floor-1-wall" class="cls-1" points="662.59 737.14 662.74 738.4 658.17 738.94 657.36 732.09 661.93 731.55 667.49 730.89"/><polyline id="line-floor-1-wall-4" data-name="line-floor-1-wall" class="cls-1" points="654.86 691.4 648.5 717.63 647.22 722.11"/><polyline id="line-floor-1-wall-5" data-name="line-floor-1-wall" class="cls-1" points="698.85 674.21 657.35 679.22 654.86 691.4 636.8 693.64 629.05 727.68 632.73 735 644.35 733.63 646.07 727.68"/><polyline id="line-floor-1-wall-6" data-name="line-floor-1-wall" class="cls-1" points="617.15 650.17 625.09 640.66 626.19 641.51"/><polyline id="line-floor-1-wall-7" data-name="line-floor-1-wall" class="cls-1" points="623.69 628.83 614.74 629.79 614.98 631.77 615.84 639.07 613.66 639.33"/><polyline id="line-floor-1-wall-8" data-name="line-floor-1-wall" class="cls-1" points="631.55 732.63 627.81 733.07 626.22 719.63 624.36 703.9 620.72 673.12"/><polyline id="line-floor-1-wall-9" data-name="line-floor-1-wall" class="cls-1" points="602.69 675.25 606.28 705.58 624.31 703.45"/><polyline class="cls-1" points="840.1 512.77 856.25 510.07 867.48 531 861.42 531.71 861.63 533.4 846.69 549.06"/><polyline class="cls-1" points="812.56 525.84 808.65 518.02 832.11 514.1"/><polyline class="cls-1" points="840.56 556.02 832.87 564.4 829.33 558.08"/><polyline class="cls-1" points="824.66 549.73 824.05 548.64 823.04 546.83"/><polyline class="cls-1" points="832.87 564.4 809.23 589.25 800.12 570.99 817.34 553.14 823.04 546.83 818.74 538.23"/><polyline class="cls-1" points="843.42 578.14 840.56 572.35 835.32 561.73"/><polyline class="cls-1" points="809.23 589.25 814.91 600.66 840.45 587.26"/><polyline class="cls-1" points="845.78 584.46 849.9 582.42 856.55 595.73"/><polyline class="cls-1" points="859.21 601.05 860.07 602.77 856 604.81 824.71 620.54 814.91 600.66"/><polyline class="cls-1" points="856 604.81 856.66 606.03 857.32 607.25"/><polyline class="cls-1" points="861.7 615.35 862.68 617.16 866.38 615.31 860.07 602.77"/><polyline class="cls-1" points="877.52 647.13 878.7 649.5 879.88 651.88"/><polyline class="cls-1" points="874.93 641.89 863.63 619.08 862.68 617.16"/><polyline class="cls-1" points="867.48 531 886.55 528.74 900.27 556.22 863.08 574.62 862.37 573.19"/><polyline class="cls-1" points="859.74 567.9 851.47 551.22 849.13 546.5"/><polyline class="cls-1" points="863.08 574.62 863.63 575.72 864.17 576.83"/><polyline class="cls-1" points="866.87 582.28 879.09 606.96 916.5 588.63 900.27 556.22"/><polyline class="cls-1" points="894.61 638.05 895.33 639.48 932.49 620.78 916.5 588.63"/><polyline class="cls-1" points="879.09 606.96 885.2 619.19 891.83 632.48"/><polyline class="cls-1" points="895.33 639.48 895.87 640.58 896.41 641.69"/><polyline class="cls-1" points="899.07 647.09 902.71 654.52 909.26 667.84"/><polyline class="cls-1" points="928.12 665.6 923.4 670.79 923.71 673.38 912.5 674.8 909.26 667.84 928.12 665.6 936.21 656.49 937.99 657.89 938.43 657.43 938.05 656.77 946.21 648.26 932.49 620.78"/><polyline class="cls-1" points="926.1 678.47 929.36 685.39 947.91 676.25 938.43 657.43"/><polyline class="cls-1" points="933.02 692.14 930.82 688.09 929.36 685.39"/><polyline class="cls-1" points="947.91 676.25 956.86 694.02 935.41 696.56 933.15 696.83"/><polyline class="cls-1" points="956.86 694.02 968.52 692.94 984.04 724.54 970.92 738.78 947.14 741.19 925.58 697.72 926.58 697.61"/><polyline class="cls-1" points="923.74 697.94 924.65 697.83 925.58 697.72"/><polyline class="cls-1" points="918.15 698.6 912.87 699.23 892.89 709.04 889.81 709.41"/><polyline class="cls-1" points="892.89 709.04 910.34 745.04 887.66 747.42 881.55 734.96 874.1 720.02"/><polyline class="cls-1" points="947.14 741.19 923.74 743.64 910.34 745.04"/><polyline class="cls-1" points="877.14 653.26 882.67 664.44 884.39 663.63 889.64 661.2 884.17 649.86 879.88 651.88 848.24 667.91 845.46 662.29 824.71 620.54"/><polyline class="cls-1" points="895.46 672.99 894.26 670.42 889.04 673.11 894.61 684.47 900.04 681.92 898.13 678.1"/><polyline class="cls-1" points="892.4 666.81 893.33 668.62 894.26 670.42"/><polyline class="cls-1" points="889.04 673.11 886.2 667.33 884.39 663.63"/><polyline class="cls-1" points="865.17 659.33 876.21 682.12 880.94 679.54 882.61 682.94"/><polyline class="cls-1" points="885.23 688.26 885.58 688.97 894.61 684.47"/><polyline class="cls-1" points="876.21 682.12 872.6 683.96 873.09 688.09"/><polyline class="cls-1" points="873.67 693 873.9 694.98 860.89 696.52 860.42 692.55 848.24 667.91"/><polyline class="cls-1" points="867.6 696.55 867.55 696.14 867.5 695.74"/><polyline class="cls-1" points="868.23 701.85 868.46 703.79 868.84 707.06"/><polyline class="cls-1" points="884.64 710.02 879.78 710.6 877.13 706.08 867.69 707.19 869.27 710.36"/><polyline class="cls-1" points="871.77 715.36 874.1 720.02 880.85 712.27 879.78 710.6"/><polyline class="cls-1" points="867.69 707.19 863.6 707.68 856.47 708.52"/><polyline class="cls-1" points="850.76 709.2 840.28 710.44 833.56 740.43 881.55 734.96"/><polyline class="cls-1" points="840.28 710.44 815.46 713.38 816.25 720.03 811.48 720.59 811.59 721.52"/><polyline class="cls-1" points="812.11 725.96 813.49 737.58 799.98 739.17 800.54 743.85"/><polyline class="cls-1" points="833.56 740.43 831.97 747.37 814.88 749.29 813.49 737.58"/><polyline class="cls-1" points="801.05 748.15 801.37 750.89 814.88 749.29"/><polyline class="cls-1" points="811.48 720.59 810.69 713.94 815.46 713.38"/><polyline class="cls-1" points="804.89 714.63 806.42 714.45 810.69 713.94"/><polyline class="cls-1" points="775.04 749.64 775.54 753.85 801.37 750.89"/><polyline class="cls-1" points="799.48 715.27 776.33 718.01 772.86 731.21 774.42 744.38"/><polyline class="cls-1" points="845.46 662.29 824.15 664.31 834.64 685.63"/><polyline class="cls-1" points="837.18 690.81 839.27 695.05 860.42 692.55"/><polyline class="cls-1" points="845.79 678.76 839.71 681.72 836.63 675.55 842.94 672.66 845.79 678.76"/><polyline class="cls-1" points="839.27 695.05 835.98 695.44 830.66 696.07"/><polyline class="cls-1" points="813.39 698.11 806.8 698.89 802.4 661.75 809 660.97"/><polyline class="cls-1" points="815.23 660.23 821.47 659.5 824.15 664.31"/><polyline class="cls-1" points="802.4 661.75 698.85 674.21 703.22 711.15 731.41 707.82"/><polyline class="cls-1" points="740.05 711.83 737.73 707.07 767.69 703.52"/><polyline class="cls-1" points="773.26 702.86 779.78 702.09 806.8 698.89"/><polyline class="cls-1" points="762.35 704.15 759.3 717.43 754.21 718.03"/><polyline class="cls-1" points="748.9 718.66 743.89 719.25 741.97 715.6 747.8 714.91 746.75 706"/><polyline class="cls-1" points="772.86 731.21 766.74 731.93 762.68 732.41"/><polyline class="cls-1" points="773.71 738.36 767.55 739.09 768.01 742.96 750.23 745.06 752.21 761.75 776.13 758.81 775.54 753.85"/><polyline class="cls-1" points="750.23 745.06 748.93 734.04 757 733.08"/><polyline class="cls-1" points="752.21 761.75 724.4 765.04 723.79 759.87 721.12 737.33 739.4 735.17"/><polyline class="cls-1" points="744.98 734.51 746.95 734.27 748.93 734.04"/><polyline class="cls-1" points="734.33 735.77 732.58 732.41 731 729.38"/><polyline class="cls-1" points="729.12 725.35 728.2 723.7 719.63 724.72 721.12 737.33"/><polyline class="cls-1" points="703.22 711.15 695.91 712.02 692.05 712.48"/><polyline class="cls-1" points="686.42 713.14 677.49 714.2 673.73 714.64"/><polyline class="cls-1" points="668.38 715.28 662.43 715.98 648.5 717.63"/><polyline class="cls-1" points="663.34 743.49 663.43 744.26 665.09 744.06"/><polyline class="cls-1" points="670.24 743.45 677.04 742.65 676.95 741.88"/><polyline class="cls-1" points="673.15 730.22 675.53 729.94 676.35 736.79"/><polyline class="cls-1" points="663.43 744.26 664.62 754.29 678.23 752.68 677.04 742.65"/><polyline class="cls-1" points="675.53 729.94 694.54 727.69 713.55 725.44"/><polyline class="cls-1" points="704.61 732.5 704.38 730.52 703.91 726.58"/><polyline class="cls-1" points="665.28 759.87 664.95 757.08 664.62 754.29"/><polyline class="cls-1" points="665.78 764.12 666.1 766.8 723.79 759.87"/><polyline class="cls-1" points="657.36 732.09 653.26 732.57 644.35 733.63"/><polyline class="cls-1" points="632.73 735 649.82 768.73 666.1 766.8"/><polyline class="cls-1" points="625.98 717.6 609.75 719.52 610.07 722.18"/><polyline class="cls-1" points="610.75 727.95 611.59 734.99 627.81 733.07"/><polyline class="cls-1" points="636.8 693.64 632.22 694.08 630.24 677.36 629.49 671.03"/><polyline class="cls-1" points="632.28 677.12 631.26 677.24 630.24 677.36"/><polyline class="cls-1" points="637.52 676.5 656.76 674.22 657.35 679.22"/><polyline class="cls-1" points="635.62 648.77 636.75 649.64 629.98 658.47 628.03 658.7 628.57 663.25"/><polyline class="cls-1" points="639.12 669.65 636.75 649.64 653.61 647.64 663.78 634.86 661.99 618.05 648.97 608.42 633.18 610.29 622.96 622.67 625.09 640.66"/><polyline class="cls-1" points="653.61 647.64 654.86 658.22 656.76 674.22"/><polyline class="cls-1" points="629.98 658.47 634.77 657.9 637.69 657.56"/><polyline class="cls-1" points="639.71 674.62 639.78 675.25 639.9 676.22"/><polyline class="cls-1" points="611.59 734.99 613.25 749.9 541.65 758.37 538.08 728 556.01 725.88 555.61 722.45"/><polyline class="cls-1" points="555.61 722.45 554.38 712.08 536.49 714.19 538.08 728"/><polyline class="cls-1" points="609.75 719.52 604.42 720.15 592.55 721.56"/><polyline class="cls-1" points="591.15 709.74 587.44 678.4 561.41 681.48"/><polyline class="cls-1" points="556.06 682.11 550.9 682.73 554.38 712.08"/><polyline class="cls-1" points="536.49 714.19 533.02 684.84 548.95 682.96"/><polyline class="cls-1" points="550.7 680.96 550.9 682.73 548.95 682.96"/><polyline class="cls-1" points="555.31 636.5 582.12 633.4 585.96 665.88 589.5 665.46"/><polyline class="cls-1" points="533.02 684.84 531.5 672.06 527.7 639.69 545.57 637.62 548.55 637.28"/><polyline class="cls-1" points="582.12 633.4 598.76 631.68 599.86 640.96 602.73 640.62"/><polyline class="cls-1" points="584.97 657.49 601.48 655.54 600.53 647.54"/><polyline class="cls-1" points="598.15 664.32 602.46 663.81 601.48 655.54"/><polyline class="cls-1" points="615.84 639.07 617.36 651.93 615.18 652.23"/><polyline class="cls-1" points="604.26 653.54 602.77 653.72 601.28 653.89"/><polyline class="cls-1" points="545.57 637.62 546.63 646.65 548.14 659.35"/><polyline class="cls-1" points="547.7 670.14 540.98 670.93 531.5 672.06"/><polyline class="cls-1" points="856.25 510.07 853.92 504.91 862.24 503.72 863.94 486.61 862.37 472.49 857.19 456.79 845.87 458.13 842.31 428.95 781.01 436.81 791.84 516.39 807.03 514.59 808.65 518.02"/><polyline id="_Path_" data-name="&lt;Path&gt;" class="cls-1" points="352.57 254.1 356.06 292.96 335.48 294.39 332.4 255.58 352.57 254.1"/><polyline id="_Path_2" data-name="&lt;Path&gt;" class="cls-1" points="963.95 114.07 924.29 133.77 924.09 132.08 918.96 127.85 911.97 128.38 911.23 129.77 903.8 115.55 890.92 111.33 864.8 124.59 863.47 128.68 856.6 129.39 852.53 134.1 853.04 140.99 857.89 145.35 864.08 144.92 867.82 151.83 854.69 158.32 868.88 187.15 879.37 182.18 893.36 210.23 895.91 208.82 897.57 210.04 899.35 210.63 901.17 210.72 910.88 205.94 911.34 203.88 911.48 202.55 911.4 201.85 926.57 193.91 928 195.76 929.74 197.67 932.35 200.18 935.86 201.78 940.11 202.78 944 202.53 947.31 201.53 950.42 199.75 952.43 197.1 954.22 194.37 955.25 191.22 955.56 187.87 955.23 185.09 954.48 182.15 953.65 180.24 988.34 162.74 963.95 114.07"/><polyline id="_Path_3" data-name="&lt;Path&gt;" class="cls-1" points="1120.39 151.14 1104.29 154.65 1104.98 157.09 1084.79 161.79 1084.03 158.76 1072.45 161.34 1069.8 163.57 1068.23 165.67 1066.6 168.88 1067.01 172.36 1068.01 175.66 1070.34 178.31 1072.94 179.91 1080.02 212.51 1081 212.29 1087.62 243.53 1138 232.73 1120.39 151.14"/><polyline class="cls-1" points="527.7 639.69 527.28 636.11 530.15 635.67 528 618.43"/><polyline class="cls-1" points="526.4 605.53 525.95 601.93 466.18 609.58"/><polyline class="cls-1" points="451.46 611.46 442.03 612.67 441.35 607.12"/><polyline class="cls-1" points="440.45 599.88 439.65 593.41 423.5 594.72 421.72 607.82 420.53 619.85 419.78 633.78"/><polyline class="cls-1" points="441.84 611.3 438.1 611.74 433.44 612.29"/><polyline class="cls-1" points="426.69 613.09 423.14 613.51 421.13 613.75"/><polyline class="cls-1" points="419.99 629.84 425.69 629.17 428.56 628.83"/><polyline class="cls-1" points="435.3 628.03 443.7 627.04 442.03 612.67"/><polyline class="cls-1" points="485.93 643.53 514.18 640.19 515.01 647.2 519.81 646.63"/><polyline class="cls-1" points="526.87 645.79 527.5 645.72 528.4 645.61"/><polyline class="cls-1" points="485.93 643.53 481.02 644.12 481.85 651.12 507.23 648.12 520.19 757.6 402.48 771.92 402.25 748.69 402.26 729.25 403.49 712.39 405.36 695.86 407.03 684.48 410.37 668.48 412.49 659.33 453.82 654.44 453 647.43 419.64 651.38 419.68 650.16 419.68 647.14"/><polyline class="cls-1" points="515.01 647.2 515.96 655.27 518.9 680.05"/><polyline class="cls-1" points="510.96 679.65 515.76 679.08 518.74 678.73"/><polyline class="cls-1" points="511.87 687.35 519.65 686.42 519.51 685.24"/><polyline class="cls-1" points="513.91 704.56 523.84 703.38 527.18 702.99"/><polyline class="cls-1" points="521.3 700.33 521.41 701.25 521.69 703.64"/><polyline class="cls-1" points="520.04 689.71 519.85 688.09 519.65 686.42"/><polyline class="cls-1" points="533.72 702.21 534.17 702.16 535.03 702.06"/><polyline class="cls-1" points="412.49 659.33 414.9 648.91 419.68 650.16"/><polyline class="cls-1" points="528.2 752.01 523.84 752.52 523 752.62 519.64 753.02"/><polyline class="cls-1" points="439.65 593.41 437.56 575.74 434.78 576.07 432.94 560.48 435.72 560.15 434.86 548.67 432.06 525.03 462.5 521.43 462.89 524.72"/><polyline class="cls-1" points="463.68 531.35 465.33 545.3 470.38 588.03"/><polyline class="cls-1" points="471.1 594.07 471.51 597.58 471.7 599.12"/><polyline class="cls-1" points="472.45 605.49 472.64 607.11 472.83 608.73"/><polyline class="cls-1" points="471.4 596.6 493.91 593.93 494.25 596.79"/><polyline class="cls-1" points="495.32 605.85 495.14 604.34 494.96 602.83"/><polyline class="cls-1" points="493.91 593.93 490.89 568.49 468.39 571.15"/><polyline class="cls-1" points="464.05 534.49 462.42 534.68 461.65 534.77"/><polyline class="cls-1" points="462.5 521.43 485.01 518.77 485.48 522.7"/><polyline class="cls-1" points="486.18 528.68 486.42 530.69 487.79 542.28"/><polyline class="cls-1" points="489.1 553.31 490.13 562 490.89 568.49"/><polyline class="cls-1" points="486.48 531.14 485.48 531.25 483.69 531.47"/><polyline class="cls-1" points="477.9 532.15 466.65 533.48 463.96 533.8"/><polyline class="cls-1" points="445.95 523.39 446.15 525.08 446.46 527.7"/><polyline class="cls-1" points="447.07 532.84 447.5 536.45 433.61 538.09"/><polyline class="cls-1" points="454.36 535.64 449.33 536.23 447.5 536.45"/><polyline class="cls-1" points="485.01 518.77 489.1 518.28 579.43 507.59"/><polyline class="cls-1" points="586.26 506.78 600.29 505.12 602.82 526.47 573.06 525.36 572.21 518.12"/><polyline class="cls-1" points="571.46 511.79 571.27 510.19 571.08 508.58"/><polyline class="cls-1" points="573.06 525.36 574.34 536.18 585.85 534.82 589.67 567.12 578.17 568.48 580.3 586.49"/><polyline class="cls-1" points="581.36 595.44 581.2 594.08 581.1 593.28"/><polyline class="cls-1" points="579.87 582.85 580.65 582.76 581.44 582.66"/><polyline class="cls-1" points="586.96 582.01 608.98 579.4 607.95 570.68 609.34 570.51 604.11 526.32 602.82 526.47"/><polyline class="cls-1" points="525.95 601.93 530.15 601.44 565.99 597.24"/><polyline class="cls-1" points="574.6 596.23 582.77 595.27 589.11 594.53"/><polyline class="cls-1" points="596.72 593.64 610.48 592.03 608.98 579.4"/><polyline class="cls-1" points="596.63 586.24 598.71 585.99 602.73 585.51"/><polyline class="cls-1" points="663.13 403.63 694.88 399.88 717.12 397.24 723.16 448.29 697.56 451.32 692.96 412.49 691.68 412.64"/><polyline class="cls-1" points="691.43 400.28 691.69 402.47 692.02 405.3"/><polyline class="cls-1" points="694.41 425.41 684.72 426.55 683.2 413.7 686.6 413.3"/><polyline class="cls-1" points="683.2 413.7 676.04 414.55 675.86 413"/><polyline class="cls-1" points="662.02 416.21 676.04 414.55 677.57 427.4 678.76 427.26"/><polyline class="cls-1" points="683.94 426.65 684.33 426.6 684.72 426.55"/><polyline class="cls-1" points="677.57 427.4 665.61 428.82 665.91 431.35"/><polyline class="cls-1" points="666.5 436.4 668.67 454.74 697.56 451.32"/><polyline class="cls-1" points="656.58 416.85 642.35 418.53 642.11 416.55"/><polyline class="cls-1" points="641.43 410.81 640.9 406.26 650.99 405.07 650.39 400.02"/><polyline class="cls-1" points="642.35 418.53 642.73 421.77 645.68 446.67"/><polyline class="cls-1" points="646.31 452.02 646.94 457.31 668.67 454.74"/><polyline class="cls-1" points="633.95 425.43 639.29 424.8 643.04 424.36"/><polyline class="cls-1" points="628.47 426.08 610.55 428.2 608.43 409.7 618.76 408.48 625.4 407.7"/><polyline class="cls-1" points="640.9 406.26 635.25 406.93 630.8 407.46"/><polyline class="cls-1" points="623.19 407.96 623.66 411.86 624.6 419.85"/><polyline class="cls-1" points="625.2 424.93 625.29 425.69 625.38 426.44"/><polyline class="cls-1" points="649.76 394.66 648.6 384.83 647.64 376.79"/><polyline class="cls-1" points="618.76 408.48 614.5 373.34 646.78 369.52 646.99 371.22"/><polyline class="cls-1" points="610.55 428.2 614.32 461.17 646.94 457.31"/><polyline class="cls-1" points="693.7 389.97 693 384.06 661.7 387.77 659.61 370.11"/><polyline class="cls-1" points="694.88 399.88 694.62 397.72 694.36 395.56"/><polyline class="cls-1" points="614.5 373.34 598.02 375.39 590.98 315.22 639.67 309.45"/><polyline class="cls-1" points="667.36 269.2 679.24 267.8 685.93 324.29 654.62 327.99 652.59 310.78"/><polyline class="cls-1" points="658.42 270.26 647.94 271.5 651.94 305.29"/><polyline class="cls-1" points="693 384.06 687.93 341.21 687.71 339.38"/><polyline class="cls-1" points="685.93 324.29 686.17 326.37 686.42 328.45"/><polyline class="cls-1" points="675.7 325.5 675.86 326.86 676.19 329.66"/><polyline class="cls-1" points="677.49 340.59 677.94 344.45 688.17 343.24"/><polyline class="cls-1" points="675.84 239.05 676.17 241.87 677.31 251.46"/><polyline class="cls-1" points="678.68 263.05 679.24 267.8 701.49 265.17 694.3 204.49 672.06 207.12 673.67 220.76"/><polyline class="cls-1" points="677.06 249.39 671.18 250.09 665.29 250.79"/><polyline class="cls-1" points="656.24 251.86 631.8 254.75 630.66 245.09"/><polyline class="cls-1" points="629.24 233.07 628.89 230.12 628.2 230.2 627.43 223.72 634.35 214.94 640.67 214.19 640.27 210.88 672.06 207.12"/><polyline class="cls-1" points="622.34 233.88 621.97 230.79 623.46 230.62 622.88 225.71 624.37 224.08"/><polyline class="cls-1" points="624.9 252.21 625.29 255.52 631.8 254.75"/><polyline class="cls-1" points="588.51 259.87 618.65 256.31 625.29 255.52"/><polyline class="cls-1" points="640.27 210.88 610.74 214.38 611.14 217.7 615.61 217.17 624.37 224.08 627.43 223.72"/><polyline class="cls-1" points="582.84 260.55 575.17 261.45 570.17 219.18 610.74 214.38"/><polyline class="cls-1" points="636.41 281.9 636.18 279.91 623.54 281.4 625.46 297.57 638.09 296.07 637.2 288.52"/><polyline class="cls-1" points="607.97 299.64 605.08 275.25 635.21 271.69"/><polyline class="cls-1" points="590.98 315.22 588.8 296.63 566.86 299.23 564.59 280.05 577.2 278.56 595.37 276.4"/><polyline class="cls-1" points="570.99 251.16 572.43 250.99 573.92 250.82"/><polyline class="cls-1" points="571.59 231.2 560.67 232.49 557 232.92 559.32 252.55 564.95 251.88"/><polyline class="cls-1" points="566.86 299.23 568.82 315.81 519.39 321.66 517.95 309.54 515.15 285.9 511.29 286.36"/><polyline class="cls-1" points="560.67 232.49 559.14 219.58 507.97 225.64 509.65 239.89 505.85 240.34"/><polyline class="cls-1" points="495.09 241.62 487.34 242.53 485.88 230.16 480.21 230.74 464.62 232.58 463.17 220.37 436.56 223.51 436.95 226.89 408.65 230.24 411.06 250.6 393.68 252.66 398.3 291.68 414.89 289.72 417.86 314.85 445.27 311.6 445.74 315.57 471.96 312.47 488.64 310.5 487.37 299.77 494.02 298.98 492.79 288.55 500.04 287.69"/><polyline class="cls-1" points="487.34 242.53 488.13 249.19 488.55 252.74"/><polyline class="cls-1" points="489.77 263.08 490.52 269.35 492.79 288.55"/><polyline class="cls-1" points="228.73 739.23 234.94 738.5 233.21 723.93 227.01 724.67"/><polyline class="cls-1" points="220.97 725.38 212.19 726.42 213.92 740.99 222.69 739.95"/><polyline class="cls-1" points="213.1 716.58 211.06 716.82 212.19 726.42"/><polyline class="cls-1" points="211.06 716.82 189.5 719.19 185.09 681.95 190.06 681.36 188.85 671.13 226.44 666.68"/><polyline class="cls-1" points="286.8 702.34 281.8 660.13 226.44 666.68 232.08 714.34 218.26 715.97"/><polyline class="cls-1" points="275.23 714.51 272.82 708.34 286.8 702.34 291.02 700.63 293.95 707.64"/><polyline class="cls-1" points="298.1 717.57 302.69 728.55 282.38 730.95 279.89 724.79"/><polyline class="cls-1" points="282.38 730.95 271.15 732.28 247.46 735.09"/><polyline class="cls-1" points="195.95 718.48 199.13 745.28 207.62 744.28"/><polyline class="cls-1" points="213.92 740.99 214.22 743.5 212.75 743.67"/><polyline class="cls-1" points="199.13 745.28 195.95 745.66 190.52 746.3"/><polyline class="cls-1" points="189.5 719.19 179.77 720.34 179.99 722.23 182.95 747.2 185.06 746.95"/><polyline class="cls-1" points="302.69 728.55 336.55 724.54 342.99 778.96 288.57 785.4 287.87 779.45 286.14 764.83 308.81 762.15 308.03 755.51"/><polyline class="cls-1" points="292.89 729.71 293.22 732.47 293.41 734.12"/><polyline class="cls-1" points="294.09 739.89 294.62 744.36 306.7 742.93 307.59 750.38"/><polyline class="cls-1" points="302.94 762.84 301.55 751.09 300.66 743.64"/><polyline class="cls-1" points="286.1 745.37 283.87 745.63 286.14 764.83"/><polyline class="cls-1" points="291.81 744.69 292.38 744.62 294.62 744.36"/><polyline class="cls-1" points="283.87 745.63 281.26 745.94 270.46 747.22"/><polyline class="cls-1" points="262.81 748.12 251.47 749.47 243.43 750.42"/><polyline class="cls-1" points="264.61 747.91 262.81 748.12 266.81 781.94 281.7 780.17"/><polyline class="cls-1" points="287.87 779.45 287.32 779.51 286.79 779.57"/><polyline class="cls-1" points="266.81 781.94 268.39 795.24 234.77 799.22 232.22 777.67"/><polyline class="cls-1" points="237.73 751.09 229.19 752.1 230 758.93 235.19 758.32 236.65 770.73 239.59 770.38"/><polyline class="cls-1" points="244.6 769.79 251.06 769.02 265.09 767.36"/><polyline class="cls-1" points="236.65 770.73 231.47 771.34 231.63 772.71"/><polyline class="cls-1" points="231.13 768.53 231.28 769.79 231.47 771.34"/><polyline class="cls-1" points="234.77 799.22 233.19 799.41 232.38 799.51"/><polyline class="cls-1" points="223.57 800.55 221.62 800.78 221.07 796.15"/><polyline class="cls-1" points="220.43 790.73 219.73 784.82 221.39 784.62 220.86 780.11"/><polyline class="cls-1" points="220.23 774.81 220.15 774.14 219.9 772.04"/><polyline class="cls-1" points="221.62 800.78 223.26 814.68 191.78 818.41 188.32 789.21 174.52 790.85 170.87 759.96 194 757.22"/><polyline class="cls-1" points="199.59 756.56 217.81 754.41 217.7 753.46"/><polyline class="cls-1" points="219.73 784.82 218.56 784.96 212.52 785.67"/><polyline class="cls-1" points="220.03 773.16 214.77 773.78 216.12 785.24"/><polyline class="cls-1" points="207.49 786.26 206.12 786.43 202.54 756.21"/><polyline class="cls-1" points="214.77 773.78 210.76 774.26 204.76 774.97"/><polyline class="cls-1" points="217.81 754.41 218.31 758.57 219.3 766.95"/><polyline class="cls-1" points="182.95 747.2 183.47 751.59 184.27 758.38"/><polyline class="cls-1" points="170.87 759.96 167.59 760.35 165.78 745.03"/><polyline class="cls-1" points="165.04 738.8 163.31 724.2 179.99 722.23"/><polyline class="cls-1" points="970.73 348.51 971.4 349.94 954.42 357.77 968.21 387.04 992.62 375.6 982.64 353.7"/><polyline class="cls-1" points="966.75 340.42 954.11 313.05 971.89 304.9 984.11 331.15 983.05 331.61"/><polyline class="cls-1" points="978.25 333.63 977.14 334.15 966.2 339.24"/><polyline class="cls-1" points="975.24 338.41 974.83 337.51 973.97 335.63"/><polyline class="cls-1" points="977.53 343.56 978.01 344.59 980.07 348.97"/><polyline class="cls-1" points="971.4 349.94 974.6 348.35 978.8 346.27"/><polyline class="cls-1" points="983.66 355.94 984.88 355.48 985.67 355.19"/><polyline class="cls-1" points="990.44 352.94 993.78 351.37 1005.28 345.93"/><polyline class="cls-1" points="1010.31 343.6 1012.4 342.58 1007.6 332"/><polyline class="cls-1" points="1002.82 322.49 999.22 314.64 996.43 308.56"/><polyline class="cls-1" points="984.11 331.15 996.74 324.97 996.05 323.75"/><polyline class="cls-1" points="993.48 319.4 989.96 311.67 977.7 317.38"/><polyline class="cls-1" points="997.01 309.82 1034.76 292.82 1056.41 338.84 1018.8 356.47 1016.89 352.41"/><polyline class="cls-1" points="1014.71 347.44 1013.14 344.14 1012.4 342.58"/><polyline class="cls-1" points="1018.8 356.47 1019.5 358.04 1020.4 360.06"/><polyline class="cls-1" points="1022.84 365.05 1025.23 370.06 1018.94 372.86 1019.83 375.06 1017.42 381.68 1010.76 384.94 1002.94 382.35 1002.04 380.44 996.04 383.25 992.62 375.6"/><polyline class="cls-1" points="971.89 304.9 990.74 296.27 994.22 303.66"/><polyline class="cls-1" points="987.3 306.53 986.05 303.68 984.14 299.29"/><polyline class="cls-1" points="989.96 311.67 989.7 311.07 989.43 310.47"/><polyline class="cls-1" points="990.74 296.27 1019.7 282.96 1022.54 289.12"/><polyline class="cls-1" points="1025.14 294.44 1025.56 295.25 1026.27 296.64"/><polyline class="cls-1" points="303.02 496.24 274.55 499.6 271.8 476.33 281.26 475.21 295.19 473.56 297.03 489.17 302.11 488.57"/><polyline class="cls-1" points="315.41 486.99 318.05 486.68 324.12 485.96"/><polyline class="cls-1" points="329.81 485.29 332.27 485 333.03 491.44 334.43 491.66"/><polyline class="cls-1" points="288.87 482.68 289.7 489.75 281.88 490.68 281.05 483.61 288.87 482.68"/><polyline class="cls-1" points="295.19 473.56 313.56 471.39 315.41 486.99 307.9 487.88"/><polyline class="cls-1" points="325.06 493.88 323.48 494.06 320.7 494.39"/><polyline class="cls-1" points="345.03 493.31 372.01 497.5 372.86 527.71 337.36 535.09 341.87 573.15"/><polyline class="cls-1" points="342.52 578.66 344.39 594.47 374.63 590.89 372.86 527.71"/><polyline class="cls-1" points="345.29 602.05 344.74 597.42 344.39 594.47"/><polyline class="cls-1" points="345.95 607.63 346.07 608.68 375.11 607.81 374.63 590.89"/><polyline class="cls-1" points="347.86 623.74 346.19 609.65 346.07 608.68"/><polyline class="cls-1" points="365.99 633.12 365.39 628.1 348.61 630.08 347.74 630.18 349.1 641.69"/><polyline class="cls-1" points="350.91 629.81 352.27 641.31 366.75 639.6 366.64 638.66"/><polyline class="cls-1" points="369.81 642.94 367.19 643.25 366.75 639.6"/><polyline class="cls-1" points="375.13 642.31 376.08 642.2 375.11 607.81"/><polyline class="cls-1" points="352.95 641.23 353.18 643.21 353.42 645.18"/><polyline class="cls-1" points="352.27 641.31 349.1 641.69 349.57 645.63"/><polyline class="cls-1" points="351.93 656.01 350.32 652.02 338.71 656.4 333.46 642.62 336.25 641.08"/><polyline class="cls-1" points="340.73 638.57 343.42 637.12 348.25 634.52"/><polyline class="cls-1" points="350.19 650.87 350.25 651.45 350.32 652.02"/><polyline class="cls-1" points="341.22 655.45 342.05 657.57 342.88 659.68"/><polyline class="cls-1" points="338.71 656.4 335.03 657.84 336.64 661.93"/><polyline class="cls-1" points="333.46 642.62 332.25 643.25 328.81 645.07"/><polyline class="cls-1" points="330.64 647.41 330.26 646.41 329.59 644.66"/><polyline class="cls-1" points="324.37 647.57 316.86 651.77 321.58 673.75 376.34 651.46 376.08 642.2"/><polyline class="cls-1" points="315.55 645.66 313.72 637.12 313.03 637.2"/><polyline class="cls-1" points="313.84 631.19 311.82 614.13 289.86 616.73 292.56 639.62 304.01 638.27"/><polyline class="cls-1" points="304.17 623.31 305.02 630.47 298.4 631.25 297.55 624.1 304.17 623.31"/><polyline class="cls-1" points="313.24 626.14 313.94 626.06 314.64 625.98"/><polyline class="cls-1" points="320.31 625.3 320.92 625.23 324.07 624.86"/><polyline class="cls-1" points="330.78 624.07 338.9 623.11 337.48 611.09 320.46 613.11 321.88 625.12"/><polyline class="cls-1" points="320.46 613.11 314.64 613.79 311.82 614.13"/><polyline class="cls-1" points="313.56 471.39 330.42 469.39 332.27 485"/><polyline class="cls-1" points="292.56 639.62 294.81 658.59 281.8 660.13"/><polyline class="cls-1" points="188.85 671.13 140.69 676.83 116.86 475.54 279.03 456.34 281.26 475.21"/><polyline class="cls-1" points="549.15 667.89 549.39 669.94 547.7 670.14"/><polyline class="cls-1" points="559.9 668.7 561.89 668.46 558.07 636.18"/><polyline class="cls-1" points="554.55 669.33 551.79 669.65 549.39 669.94"/><polyline class="cls-1" points="641.59 325.65 641.72 326.75 642.04 329.48"/><polyline class="cls-1" points="644.29 348.43 644.43 349.64 644.74 352.27"/><polyline class="cls-1" points="677.94 344.45 676.89 344.57 676.23 344.65"/><polyline class="cls-1" points="664.59 346.03 656.87 346.94 658.36 359.52"/><polyline class="cls-1" points="605.08 275.25 603.7 275.42 602.32 275.58"/><polyline class="cls-1" points="632.22 694.08 630.04 694.34 623.32 695.13"/><g id="boundaries"><polyline class="cls-2" points="0.5 2.96 0.5 0.5 3.54 0.5"/><polyline class="cls-2" points="1472.14 857.86 1475.53 857.86 1475.53 854.47"/></g></g></g></g></g></svg>