<svg xmlns="http://www.w3.org/2000/svg" viewBox="0 0 1476.03 858.36"><defs><style>.cls-1,.cls-2{fill:none;stroke-miterlimit:10;}.cls-1{stroke:#4e17e5;}.cls-2{stroke:#000;}</style></defs><g id="Layer_2" data-name="Layer 2"><g id="Layer_2-2" data-name="Layer 2"><g id="floor-6"><g id="playgroundstructure-floor-6"><polygon class="cls-1" points="222.51 383.25 258.43 379 258.04 375.69 260.02 375.45 258.69 364.2 271.6 362.67 272.95 374.09 288.35 372.27 290.77 392.79 313.28 390.13 312.25 381.35 317.05 380.79 318.08 389.56 331.16 388.01 331.81 393.47 291.42 398.25 292.01 403.22 279.1 404.75 280.05 412.75 279.24 415.86 261.39 438.5 256.88 434.95 272.45 415.21 273.86 412.69 273.01 405.52 261.29 406.91 259.02 387.82 242.47 389.78 244.72 408.76 223.9 392.34 222.51 383.25"/><polygon class="cls-1" points="289.77 368.24 292.82 370.65 298.78 363.09 295.7 360.65 289.77 368.24"/><rect class="cls-1" x="322.33" y="355.03" width="5.22" height="5.39" transform="translate(-39.79 40.67) rotate(-6.75)"/><polygon class="cls-1" points="193.65 429.68 211.48 427.57 213.61 445.56 195.78 447.67 194.33 435.4 193.65 429.68"/><polygon class="cls-1" points="335.74 433.12 338.8 432.75 341.5 429.33 341.1 425.94 337.58 423.17 334.61 423.52 331.83 427.04 332.2 430.12 335.74 433.12"/><polygon class="cls-1" points="190.01 370.98 187.99 381.8 192.15 389.07 189.91 398.02 194.25 406.79 197.46 397.01 192.68 389.01 195.38 379.47 190.01 370.98"/><polygon class="cls-1" points="452.41 474.24 460.47 473.28 461.07 478.37 473.21 476.93 472.07 467.33 480.24 466.37 483.28 492.07 465.84 494.14 464.81 485.42 453.89 486.71 452.41 474.24"/><polygon class="cls-1" points="422.33 486.9 423.66 498.15 433.07 502.49 442.37 495.77 441.16 485.51 431.12 480.9 422.33 486.9"/><g id="boundaries"><polyline class="cls-2" points="0.5 2.96 0.5 0.5 3.54 0.5"/><polyline class="cls-2" points="1472.14 857.86 1475.53 857.86 1475.53 854.47"/></g></g></g></g></g></svg>