<svg xmlns="http://www.w3.org/2000/svg" viewBox="0 0 1476.03 858.36"><defs><style>.cls-1,.cls-2{fill:none;stroke-miterlimit:10;}.cls-1{stroke:#00c1de;}.cls-2{stroke:#000;}</style></defs><g id="Layer_2" data-name="Layer 2"><g id="Layer_2-2" data-name="Layer 2"><g id="floor-1"><g id="railings-floor-1"><polyline class="cls-1" points="559.32 252.55 560.88 265.75 526.78 269.78"/><polyline class="cls-1" points="888.37 723.23 891.84 730.04 893.75 733.78"/><polyline class="cls-1" points="813.5 572.3 817.14 568.5 820.78 564.69"/><polyline class="cls-1" points="641.72 717.12 643.17 710.88 644.42 705.5"/><polyline class="cls-1" points="510.34 620.52 483.58 623.69 485.93 643.53"/><polyline class="cls-1" points="496.14 631.98 508.02 630.57 511.32 630.18"/><polyline class="cls-1" points="526.23 714.12 527.21 722.4 529.22 739.39"/><polyline class="cls-1" points="663.41 396.57 670.93 395.68 680.93 394.5"/><polyline class="cls-1" points="558.84 248.5 541.79 250.52 524.74 252.54"/><polyline class="cls-1" points="515.15 285.9 539.87 282.97 564.59 280.05"/><polyline class="cls-1" points="233.21 723.93 243.29 720.06 253.36 716.18"/><polyline class="cls-1" points="275.06 755.88 275.68 761.07 276.85 770.99"/><polyline class="cls-1" points="268.39 795.24 270.43 812.48 241.44 815.91"/><polyline class="cls-1" points="230.63 817.19 222.69 818.13 222.29 814.8"/><polyline class="cls-1" points="172.68 731.74 174.14 744.02 174.9 750.5"/><polyline class="cls-1" points="988.06 346.57 995.31 343.3 1002.56 340.04"/><polyline class="cls-1" points="955.44 315.94 940.15 322.98 951.02 346.7 944 350.17"/><polyline class="cls-1" points="947.82 358.71 956.07 354.89 956.9 356.63"/><polyline class="cls-1" points="359.34 513.12 360.98 521.77 336.37 526.69 337.36 535.09"/><polyline class="cls-1" points="335.27 611.35 324.35 519.05 321.42 494.31"/><polyline class="cls-1" points="320.7 494.39 313.47 495.15 303.02 496.24"/><polyline class="cls-1" points="625.46 297.57 615.23 298.78 607.97 299.64"/><polyline class="cls-1" points="576.14 287.41 583.73 286.51 591.32 285.61"/><polyline class="cls-1" points="1056.82 351.8 1038.33 360.45 1023.87 367.22"/><polyline class="cls-1" points="701.49 265.17 707.29 314.18 711.63 313.66"/><polyline class="cls-1" points="714.2 335.4 709.86 335.92 717.12 397.24"/><g id="boundaries"><polyline class="cls-2" points="0.5 2.96 0.5 0.5 3.54 0.5"/><polyline class="cls-2" points="1472.14 857.86 1475.53 857.86 1475.53 854.47"/></g></g></g></g></g></svg>