<svg xmlns="http://www.w3.org/2000/svg" viewBox="0 0 1476.03 858.36"><defs><style>.cls-1{fill:#44664a;}.cls-2{fill:none;stroke:#000;stroke-miterlimit:10;}</style></defs><g id="Layer_2" data-name="Layer 2"><g id="Layer_2-2" data-name="Layer 2"><g id="floor-1"><g id="recycling-floor-1"><circle class="cls-1" cx="753.05" cy="730.38" r="1.95"/><circle class="cls-1" cx="803.95" cy="651.05" r="1.95"/><circle class="cls-1" cx="731.62" cy="524.03" r="1.95"/><circle class="cls-1" cx="815.26" cy="545.33" r="1.95"/><circle class="cls-1" cx="677.66" cy="478.62" r="1.95"/><circle class="cls-1" cx="583" cy="493.95" r="1.95"/><circle class="cls-1" cx="551.96" cy="410" r="1.95"/><circle class="cls-1" cx="547.37" cy="371.19" r="1.95"/><circle class="cls-1" cx="453.4" cy="454.84" r="1.95"/><circle class="cls-1" cx="352.98" cy="488.24" r="1.95"/><circle class="cls-1" cx="309.84" cy="722.56" r="1.95"/><circle class="cls-1" cx="269.29" cy="712.67" r="1.95"/><circle class="cls-1" cx="202.84" cy="747.73" r="1.95"/><circle class="cls-1" cx="231.86" cy="764.21" r="1.95"/><circle class="cls-1" cx="343.27" cy="358.82" r="1.95"/><circle class="cls-1" cx="717.15" cy="339.14" r="1.95"/><circle class="cls-1" cx="701.01" cy="202.84" r="1.95"/><circle class="cls-1" cx="1123.57" cy="241.24" r="1.95"/><circle class="cls-1" cx="1117.95" cy="679.71" r="1.95"/><g id="boundaries"><polyline class="cls-2" points="0.5 2.96 0.5 0.5 3.54 0.5"/><polyline class="cls-2" points="1472.14 857.86 1475.53 857.86 1475.53 854.47"/></g></g></g></g></g></svg>