<svg xmlns="http://www.w3.org/2000/svg" viewBox="0 0 1476.03 858.36"><defs><style>.cls-1{fill:#cee065;fill-opacity:0.1;stroke:lime;stroke-width:0.25px;}.cls-1,.cls-2{stroke-miterlimit:10;}.cls-2{fill:none;stroke:#000;}</style></defs><g id="Layer_2" data-name="Layer 2"><g id="Layer_2-2" data-name="Layer 2"><g id="floor-1"><g id="room-floor-1"><polygon id="room-floor-1-morganmainoffice" class="cls-1" points="809.23 589.25 835.39 561.88 846.38 584.14 814.91 600.66 809.23 589.25"/><polygon id="room-floor-1-morganheadoffice" class="cls-1" points="814.91 600.66 846.38 584.14 849.9 582.42 860.07 602.77 824.71 620.54 814.91 600.66"/><polygon id="room-floor-1-morgan102" class="cls-1" points="849.06 546.37 861.63 533.4 861.42 531.71 874.42 530.08 886.55 528.74 900.27 556.22 863.08 574.62 849.06 546.37"/><polygon id="room-floor-1-morgan104" class="cls-1" points="863.08 574.62 879.09 606.96 916.5 588.63 900.27 556.22 863.08 574.62"/><polygon id="room-floor-1-morgan106" class="cls-1" points="879.09 606.96 895.33 639.48 932.49 620.78 916.5 588.63 879.09 606.96"/><polygon id="room-floor-1-morgancomputerlab" class="cls-1" points="856 604.81 862.68 617.16 879.88 651.88 848.24 667.91 824.71 620.54 856 604.81"/><polygon id="room-floor-1-morganbathroomboys" class="cls-1" points="877.11 653.21 882.67 664.44 884.39 663.63 894.61 684.47 885.58 688.97 880.94 679.54 876.21 682.12 865.14 659.26 877.11 653.21"/><polygon id="room-floor-1-morganbathroomgirls" class="cls-1" points="876.21 682.12 872.6 683.96 873.9 694.98 860.89 696.52 860.42 692.55 848.24 667.91 865.14 659.26 876.21 682.12"/><polygon id="room-floor-1-morganseniorroom" class="cls-1" points="895.33 639.48 909.26 667.84 928.12 665.6 936.21 656.49 937.99 657.89 938.43 657.43 938.05 656.77 946.21 648.26 932.49 620.78 895.33 639.48"/><polygon id="room-floor-1-morgandeansoffice" class="cls-1" points="928.12 665.6 923.4 670.79 923.71 673.38 929.36 685.39 947.91 676.25 938.43 657.43 937.99 657.89 936.21 656.49 928.12 665.6"/><polygon id="room-floor-1-morgancopierroom" class="cls-1" points="956.86 694.02 935.41 696.56 929.36 685.39 947.91 676.25 956.86 694.02"/><polygon id="room-floor-1-morgan114" class="cls-1" points="935.41 696.56 925.58 697.72 947.14 741.19 970.92 738.78 984.04 724.54 968.52 692.94 956.86 694.02 935.41 696.56"/><polygon id="room-floor-1-morgan116" class="cls-1" points="925.58 697.72 912.87 699.23 892.89 709.04 910.34 745.04 947.14 741.19 925.58 697.72"/><polygon id="room-floor-1-angell-grade5" class="cls-1" points="833.56 740.43 840.28 710.44 867.69 707.19 881.55 734.96 833.56 740.43"/><polygon id="room-floor-1-angell-entry" class="cls-1" points="802.4 661.75 806.8 698.89 839.27 695.05 824.15 664.31 821.47 659.5 802.4 661.75"/><polygon id="room-floor-1-angell-kindergarten" class="cls-1" points="806.8 698.89 703.22 711.15 698.85 674.21 802.4 661.75 806.8 698.89"/><polygon id="room-floor-1-angell-grade1145" class="cls-1" points="698.85 674.21 657.35 679.22 654.86 691.4 648.5 717.63 703.22 711.15 698.85 674.21"/><polygon id="room-floor-1-angell-reception" class="cls-1" points="775.54 753.85 772.86 731.21 776.33 718.01 810.69 713.94 814.88 749.29 775.54 753.85"/><polygon id="room-floor-1-angell-office" class="cls-1" points="776.13 758.81 775.54 753.85 773.71 738.36 767.55 739.09 768.01 742.96 750.23 745.06 752.21 761.75 776.13 758.81"/><polygon id="room-floor-1-angell-bathroomsmall" class="cls-1" points="772.86 731.21 748.93 734.04 750.23 745.06 768.01 742.96 767.55 739.09 773.71 738.36 772.86 731.21"/><polygon id="room-floor-1-angell-bathroomlarge" class="cls-1" points="723.79 759.87 721.12 737.33 748.93 734.04 752.21 761.75 724.4 765.04 723.79 759.87"/><polygon id="room-floor-1-angell-grade1142" class="cls-1" points="721.12 737.33 719.63 724.72 675.53 729.94 678.23 752.68 664.62 754.29 666.1 766.8 723.79 759.87 721.12 737.33"/><polygon id="room-floor-1-angell-bathroomensuite" class="cls-1" points="663.43 744.26 670.83 743.38 677.04 742.65 678.23 752.68 664.62 754.29 663.43 744.26"/><polygon id="room-floor-1-angell-146" class="cls-1" points="657.36 732.09 658.17 738.94 662.74 738.4 666.1 766.8 649.82 768.73 632.73 735 657.36 732.09"/><polygon id="room-floor-1-morganfoyer" class="cls-1" points="808.65 518.02 856.25 510.07 867.48 531 861.42 531.71 861.63 533.4 849.06 546.37 835.39 561.88 832.87 564.4 823.04 546.83 808.65 518.02"/><polygon id="room-floor-1-prescott-bathroomboys" class="cls-1" points="657.35 679.22 656.76 674.22 630.24 677.36 632.22 694.08 636.8 693.64 654.86 691.4 657.35 679.22"/><polygon id="room-floor-1-prescott-bathroomgirls" class="cls-1" points="656.76 674.22 653.61 647.64 636.75 649.64 638.88 667.63 639.9 676.22 656.76 674.22"/><polygon id="room-floor-1-prescott-100" class="cls-1" points="653.61 647.64 663.78 634.86 661.99 618.05 648.97 608.42 633.18 610.29 622.96 622.67 623.69 628.83 625.09 640.66 636.75 649.64 653.61 647.64"/><polygon id="room-floor-1-prescott-109" class="cls-1" points="611.59 734.99 609.75 719.52 619.35 718.38 625.98 717.6 627.81 733.07 611.59 734.99"/><polygon id="room-floor-1-prescott-gallery" class="cls-1" points="592.55 721.56 587.44 678.4 550.9 682.73 556.01 725.88 538.08 728 540.72 750.52 541.65 758.37 559.61 756.25 596.14 751.92 613.25 749.9 611.59 734.99 609.75 719.52 592.55 721.56"/><polygon id="room-floor-1-headofls" class="cls-1" points="815.46 713.38 816.25 720.03 811.48 720.59 814.88 749.29 831.97 747.37 833.56 740.43 840.28 710.44 815.46 713.38"/><polygon id="room-floor-1-prescottelevator" class="cls-1" points="582.12 633.4 598.76 631.68 599.86 640.96 600.57 647.85 601.48 655.54 584.97 657.52 582.12 633.4"/><polygon id="room-floor-1-isenberg" class="cls-1" points="412.49 659.33 453.82 654.44 481.85 651.12 507.23 648.12 519.64 753.02 520.19 757.6 402.48 771.92 402.25 748.69 402.26 729.25 403.49 712.39 405.36 695.86 407.03 684.48 412.49 659.33"/><polygon id="room-floor-1-gcaelevator" class="cls-1" points="419.99 629.84 443.7 627.04 441.84 611.3 421.13 613.75 420.53 619.85 419.99 629.84"/><polygon id="room-floor-1-whfireplace" class="cls-1" points="472.83 608.73 442 612.67 441.84 611.3 439.65 593.41 437.56 575.74 434.78 576.07 432.94 560.48 435.72 560.15 434.86 548.67 433.61 538.09 447.5 536.45 445.95 523.39 462.5 521.43 463.68 531.35 472.83 608.73"/><polygon id="room-floor-1-wh105" class="cls-1" points="490.89 568.49 493.91 593.93 471.4 596.6 469.38 579.6 468.39 571.15 490.89 568.49"/><polygon id="room-floor-1-whtheater" class="cls-1" points="581.36 595.44 578.17 568.48 589.67 567.12 585.85 534.82 574.34 536.18 571.08 508.58 485.01 518.77 495.32 605.85 581.36 595.44"/><polygon id="room-floor-1-whbackstage" class="cls-1" points="573.08 525.3 602.82 526.47 604.11 526.32 609.34 570.51 607.95 570.68 608.98 579.4 579.89 582.85 578.17 568.48 589.67 567.12 585.85 534.82 574.34 536.18 573.08 525.3"/><polygon class="cls-1" points="587.44 678.4 585.95 665.77 582.12 633.4 558.07 636.18 561.89 668.46 531.5 672.06 533.02 684.84 587.44 678.4"/><polygon class="cls-1" points="556.01 725.88 538.08 728 536.59 714.18 554.38 712.08 556.01 725.88"/><polygon class="cls-1" points="533.02 684.84 550.9 682.73 554.38 712.08 536.59 714.18 533.02 684.84"/><polygon class="cls-1" points="519.65 686.42 521.69 703.64 513.93 704.55 511.9 687.34 516.79 686.76 519.65 686.42"/><polygon class="cls-1" points="423.5 594.72 421.72 607.82 421.13 613.75 441.84 611.3 439.65 593.41 423.5 594.72"/><polygon class="cls-1" points="445.95 523.39 447.5 536.45 433.61 538.09 432.06 525.03 434.77 524.71 445.95 523.39"/><polygon class="cls-1" points="462.5 521.43 472.83 520.21 485.01 518.77 486.48 531.16 463.97 533.83 462.5 521.43"/><polygon class="cls-1" points="468.39 571.15 490.89 568.49 486.48 531.16 463.97 533.83 465.05 542.97 468.39 571.15"/><polygon class="cls-1" points="472.83 608.73 495.32 605.85 493.91 593.93 471.4 596.6 472.83 608.73"/><polygon class="cls-1" points="691.43 400.28 717.12 397.24 723.16 448.29 697.56 451.32 691.43 400.28"/><polygon class="cls-1" points="683.2 413.7 692.88 412.55 694.45 425.4 684.72 426.55 683.2 413.7"/><polygon class="cls-1" points="676.04 414.55 683.2 413.7 684.72 426.55 694.45 425.4 697.56 451.32 668.67 454.74 665.61 428.82 677.57 427.4 676.04 414.55"/><polygon class="cls-1" points="642.35 418.53 676.04 414.55 677.57 427.4 665.61 428.82 668.67 454.74 646.94 457.31 642.35 418.53"/><polygon class="cls-1" points="610.55 428.2 614.32 461.17 646.94 457.31 643.04 424.36 610.55 428.2"/><polygon class="cls-1" points="623.19 407.96 608.43 409.7 610.55 428.2 625.38 426.44 623.19 407.96"/><polygon class="cls-1" points="598.02 375.39 646.78 369.52 639.67 309.45 590.98 315.22 598.02 375.39"/><polygon class="cls-1" points="646.78 369.52 614.51 373.44 618.66 408.49 625.4 407.7 630.8 407.46 650.99 405.07 646.78 369.52"/><polygon class="cls-1" points="656.87 346.94 661.7 387.77 693 384.06 688.17 343.24 667.84 345.64 656.87 346.94"/><polygon class="cls-1" points="685.93 324.29 654.62 327.99 647.94 271.5 660.99 269.96 679.24 267.8 685.93 324.29"/><polygon class="cls-1" points="701.49 265.17 679.24 267.8 677.06 249.39 631.8 254.75 628.89 230.12 628.2 230.2 627.43 223.72 634.35 214.94 640.67 214.19 640.27 210.88 694.3 204.49 701.49 265.17"/><polygon class="cls-1" points="625.29 255.52 624.9 252.21 622.34 233.88 621.97 230.79 623.46 230.62 622.88 225.71 624.37 224.08 615.61 217.17 611.14 217.7 610.74 214.38 570.17 219.18 575.17 261.45 625.29 255.52"/><polygon class="cls-1" points="487.34 242.53 492.79 288.55 515.15 285.9 519.39 321.66 568.82 315.81 564.59 280.05 528.51 284.32 524.74 252.54 558.84 248.5 557 232.92 560.67 232.49 559.14 219.58 507.97 225.64 509.65 239.89 487.34 242.53"/><polygon class="cls-1" points="954.42 357.77 968.21 387.04 992.62 375.6 978.8 346.27 954.42 357.77"/><polygon class="cls-1" points="966.2 339.24 978.25 333.63 983.05 331.61 984.11 331.15 971.89 304.9 954.11 313.05 966.2 339.24"/><polygon class="cls-1" points="983.66 355.94 985.67 355.19 990.44 352.94 1005.28 345.93 1010.31 343.6 1012.4 342.58 1014.71 347.44 1016.89 352.41 1018.8 356.47 1020.4 360.06 1022.84 365.05 1025.23 370.06 1018.94 372.86 1019.83 375.06 1017.42 381.68 1010.76 384.94 1002.94 382.35 1002.04 380.44 996.04 383.25 983.66 355.94"/><polygon class="cls-1" points="997.01 309.82 1002.82 322.49 1007.6 332 1012.4 342.58 1018.8 356.47 1056.41 338.84 1034.76 292.82 997.01 309.82"/><polygon class="cls-1" points="984.11 331.15 996.74 324.97 996.05 323.75 993.48 319.4 989.96 311.67 977.7 317.38 984.11 331.15"/><polygon class="cls-1" points="984.14 299.29 989.96 311.67 977.7 317.38 971.89 304.9 984.14 299.29"/><polygon class="cls-1" points="233.21 723.93 253.36 716.18 272.82 708.34 286.8 702.34 281.8 660.13 226.44 666.68 232.06 714.21 233.21 723.93"/><polygon class="cls-1" points="189.5 719.19 213.1 716.58 218.26 715.97 232.08 714.34 226.44 666.68 188.85 671.13 190.06 681.36 185.09 681.95 189.5 719.19"/><polygon class="cls-1" points="214.22 743.5 199.13 745.28 195.95 718.48 210.97 716.83 214.22 743.5"/><polygon class="cls-1" points="179.77 720.34 195.95 718.48 199.13 745.28 182.95 747.2 179.77 720.34"/><polygon class="cls-1" points="292.89 729.71 294.62 744.36 306.7 742.93 307.59 750.38 308.03 755.51 308.81 762.15 286.14 764.83 288.57 785.4 342.99 778.96 336.55 724.54 292.89 729.71"/><polygon class="cls-1" points="283.87 745.63 285.12 756.21 286.14 764.83 302.94 762.84 300.66 743.64 283.87 745.63"/><polygon class="cls-1" points="229.19 752.1 262.81 748.12 265.09 767.36 236.65 770.73 235.19 758.32 230 758.93 229.19 752.1"/><polygon class="cls-1" points="268.39 795.24 265.09 767.36 231.47 771.34 232.36 778.9 234.77 799.22 268.39 795.24"/><polygon class="cls-1" points="220.03 773.16 204.76 774.97 202.54 756.21 208.59 755.5 217.81 754.41 220.03 773.16"/><polygon class="cls-1" points="223.26 814.68 191.78 818.41 188.32 789.21 174.52 790.85 170.87 759.96 202.54 756.21 206.12 786.43 219.73 784.82 223.26 814.68"/><polygon class="cls-1" points="294.81 658.59 140.69 676.83 116.86 475.54 279.03 456.34 281.26 475.21 271.8 476.33 274.55 499.6 303.02 496.24 320.7 494.39 321.42 494.31 335.27 611.35 289.86 616.73 294.81 658.59"/><polygon class="cls-1" points="295.19 473.56 297.03 489.17 315.41 486.99 313.56 471.39 306.03 472.28 295.19 473.56"/><polygon class="cls-1" points="330.42 469.39 322.91 470.28 313.56 471.39 315.41 486.99 332.27 485 330.42 469.39"/><polygon class="cls-1" points="344.39 594.47 374.63 590.89 372.86 527.71 337.36 535.09 344.39 594.47"/><polygon class="cls-1" points="346.07 608.68 375.11 607.81 374.63 590.89 344.39 594.47 346.07 608.68"/><polygon class="cls-1" points="348.61 630.08 347.86 623.74 346.07 608.68 375.11 607.81 376.08 642.2 367.19 643.25 365.39 628.1 348.61 630.08"/><polygon class="cls-1" points="376.34 651.46 338.73 666.77 336.64 661.93 335.03 657.84 350.32 652.02 350.19 650.87 349.57 645.63 349.1 641.69 366.76 639.63 367.19 643.25 376.08 642.2 376.34 651.46"/><polygon class="cls-1" points="333.46 642.62 336.25 641.08 340.73 638.57 348.25 634.52 350.32 652.02 338.72 656.44 333.46 642.62"/><polygon class="cls-1" points="316.86 651.77 329.59 644.66 330.64 647.41 335.03 657.84 336.64 661.93 338.73 666.77 321.58 673.75 316.86 651.77"/><polygon class="cls-1" points="352.27 641.32 366.76 639.63 365.39 628.1 350.91 629.81 352.27 641.32"/><polygon class="cls-1" points="313.24 626.14 311.82 614.13 320.46 613.11 321.88 625.12 317.7 625.61 313.24 626.14"/><polygon class="cls-1" points="638.09 296.07 625.46 297.57 623.45 281.42 636.18 279.91 638.09 296.07"/><polygon class="cls-1" points="212.14 726.43 224.92 724.92 233.21 723.93 234.94 738.5 213.86 740.99 212.14 726.43"/><polygon class="cls-1" points="321.88 625.12 328.93 624.28 338.9 623.11 337.48 611.09 320.46 613.11 321.88 625.12"/><g id="boundaries"><polyline class="cls-2" points="0.5 2.96 0.5 0.5 3.54 0.5"/><polyline class="cls-2" points="1472.14 857.86 1475.53 857.86 1475.53 854.47"/></g></g></g></g></g></svg>