<svg xmlns="http://www.w3.org/2000/svg" viewBox="0 0 1476.03 858.36"><defs><style>.cls-1{fill:#d8d8d8;}.cls-1,.cls-2{stroke:#a0efb5;opacity:0.5;}.cls-1,.cls-2,.cls-3{stroke-miterlimit:10;}.cls-2{fill:#94ffbb;}.cls-3{fill:none;stroke:#000;}</style></defs><g id="Layer_2" data-name="Layer 2"><g id="Layer_2-2" data-name="Layer 2"><g id="floor-6"><g id="selectable-landcover-floor-6"><polygon class="cls-1" points="172.12 412.37 146.38 415.42 141.49 374.14 95.91 379.54 86.07 268.88 87.61 261.09 90.87 253.66 97.04 248.11 104.31 245.24 259.6 230.02 260.63 238.76 326.73 285.38 334.72 284.82 335.48 294.39 356.06 292.96 356.85 299.6 356.43 306.14 354.43 312.87 351.14 318.18 347.76 323.61 343.38 328.16 338.18 333.45 332.89 337.9 323.26 343.52 166.17 362.11 172.12 412.37"/><polygon class="cls-1" points="395 383.56 391.25 387.61 388.43 393.09 386.77 399.89 385.9 407.6 386.67 416.01 388.39 423.98 392.05 431.26 396.39 437.69 402.08 443.17 408.65 447.65 416.59 451.41 424.24 453.64 432.19 454.6 440.19 454.17 450.96 451.59 456.82 449.11 464.86 444.91 475.64 443.64 484.53 444.04 493.57 446.66 501.07 450.47 507.44 455.18 513.7 458.88 520.51 461.6 526.86 462.8 535.57 462.67 543.7 460.87 551.39 456.43 556.16 450.89 562.05 442.8 556.93 399.55 554.36 377.82 549.23 334.44 473.18 343.44 472.71 339.48 440.38 343.31 436.75 312.61 419.73 314.62 423.61 347.36 424.62 365.12 419.62 375.36 415.07 383 406.42 386.49 399.96 386.5 395 383.56"/><polygon class="cls-2" points="1110.2 618.96 1106.91 625.9 1105.66 633.01 1106.73 642.11 1109.34 648.52 1112.58 653.92 1118.13 661.07 1124.19 666.98 1131.8 673.8 1140.45 678.15 1149.99 682.14 1160.96 684.78 1172.05 686.33 1182.89 685.04 1194.61 681.22 1204.95 677.14 1212.82 671.35 1220.92 664.6 1227.13 656.79 1232.23 647.9 1235.38 639.59 1238.33 629.5 1239.95 618.57 1239.16 608.14 1236.71 597.81 1230.39 585.06 1222.87 579.19 1213.89 574.21 1203.86 573.61 1196.17 577.65 1183.39 585.99 1172.39 593.22 1157.51 598.9 1145.81 601.18 1135.63 602.16 1126.49 604.36 1116.89 610.2 1110.2 618.96"/><polygon class="cls-1" points="1234.17 520.57 1262.8 651.89 1349.37 632.74 1316.99 488.01 1234.17 520.57"/><polygon class="cls-1" points="969.86 476.95 990.77 515.48 990.28 511.39 991.62 508.97 994.96 507.4 1018.03 498.12 1022.64 498.84 1025.1 502.05 1045.21 558.6 1053.82 570.78 1065.08 577.06 1081.93 575.74 1315.75 482.44 1283.23 407.24 1282.51 401.62 1286.96 396.56 1424.38 366.53 1393.88 225.14 1365.17 230.72 1360.82 226.53 1353.63 199.86 1140.91 245.96 1137.2 245.84 1135.26 243.61 1133.1 233.78 1097.53 241.41 1101.12 261.41 1101.44 266.07 1098.72 269.53 1065.35 282.5 1100.5 376.28 988.15 419.42 1003.42 456.97 1004.05 462.27 1001.25 466.21 976.9 478.35 973.09 478.63 969.86 476.95"/><g id="boundaries"><polyline class="cls-3" points="0.5 2.96 0.5 0.5 3.54 0.5"/><polyline class="cls-3" points="1472.14 857.86 1475.53 857.86 1475.53 854.47"/></g></g></g></g></g></svg>