<svg xmlns="http://www.w3.org/2000/svg" viewBox="0 0 1476.03 858.36"><defs><style>.cls-1{fill:#df3faf;}.cls-2{fill:none;stroke:#000;stroke-miterlimit:10;}</style></defs><g id="Layer_2" data-name="Layer 2"><g id="Layer_2-2" data-name="Layer 2"><g id="floor-1"><g id="stairbuttons-floor-1"><circle id="floor-1-morganfront-up" class="cls-1" cx="814.12" cy="564.24" r="3.35"/><circle class="cls-1" cx="835.12" cy="679.94" r="3.35"/><circle class="cls-1" cx="886.51" cy="731.55" r="3.35"/><circle class="cls-1" cx="613.57" cy="690.42" r="3.35"/><circle class="cls-1" cx="626.6" cy="684.7" r="3.35"/><circle class="cls-1" cx="895.59" cy="727.09" r="3.35" transform="translate(-79.25 110.31) rotate(-6.75)"/><circle class="cls-1" cx="847.27" cy="673.8" r="3.35"/><circle id="floor-1-morganfront-down" class="cls-1" cx="820.02" cy="571.76" r="3.35"/><circle class="cls-1" cx="646.49" cy="711.69" r="3.35"/><circle class="cls-1" cx="638.78" cy="709.23" r="3.35"/><circle class="cls-1" cx="539.2" cy="654.76" r="3.35"/><circle class="cls-1" cx="522.21" cy="727.41" r="3.35"/><circle class="cls-1" cx="532.75" cy="726.16" r="3.35"/><circle class="cls-1" cx="504.62" cy="626.06" r="3.35"/><circle class="cls-1" cx="505.81" cy="636.13" r="3.35"/><circle class="cls-1" cx="441.79" cy="544.09" r="3.35"/><circle id="floor-1-whnorth-up" class="cls-1" cx="589.53" cy="520.6" r="3.35"/><circle class="cls-1" cx="605.77" cy="585.16" r="3.35"/><circle class="cls-1" cx="475.45" cy="718.04" r="3.35"/><circle id="floor-1-whnorth-up-2" data-name="floor-1-whnorth-up" class="cls-1" cx="671.99" cy="390.97" r="3.35"/><circle id="floor-1-whnorth-up-3" data-name="floor-1-whnorth-up" class="cls-1" cx="672.92" cy="398.83" r="3.35"/><circle id="floor-1-whnorth-up-4" data-name="floor-1-whnorth-up" class="cls-1" cx="615.36" cy="287.69" r="3.35"/><circle id="floor-1-whnorth-up-5" data-name="floor-1-whnorth-up" class="cls-1" cx="583.21" cy="282.13" r="3.35"/><circle id="floor-1-whnorth-up-6" data-name="floor-1-whnorth-up" class="cls-1" cx="584.33" cy="291.61" r="3.35"/><circle id="floor-1-whnorth-up-7" data-name="floor-1-whnorth-up" class="cls-1" cx="536.14" cy="260.06" r="3.35"/><circle class="cls-1" cx="280.85" cy="762.48" r="3.35"/><circle class="cls-1" cx="270.33" cy="763.72" r="3.35"/><circle class="cls-1" cx="177.95" cy="740.63" r="3.35"/><circle class="cls-1" cx="169.48" cy="741.63" r="3.35"/><circle class="cls-1" cx="300.4" cy="619.84" r="3.35"/><circle class="cls-1" cx="302.16" cy="634.73" r="3.35"/><circle class="cls-1" cx="325.64" cy="618.58" r="3.35"/><circle class="cls-1" cx="332.76" cy="617.74" r="3.35"/><circle class="cls-1" cx="219.98" cy="732.89" r="3.35"/><circle class="cls-1" cx="227.1" cy="732.04" r="3.35"/><circle class="cls-1" cx="592.47" cy="649.71" r="3.35"/><circle class="cls-1" cx="591.33" cy="640.52" r="3.35"/><circle class="cls-1" cx="631.27" cy="292.56" r="3.35"/><circle class="cls-1" cx="630.41" cy="285.27" r="3.35"/><circle class="cls-1" cx="427.95" cy="620.92" r="3.35"/><circle class="cls-1" cx="435.07" cy="620.08" r="3.35"/><circle class="cls-1" cx="365.93" cy="517.32" r="3.35"/><circle class="cls-1" cx="286.26" cy="494.18" r="3.35"/><circle class="cls-1" cx="284.46" cy="478.94" r="3.35"/><g id="boundaries"><polyline class="cls-2" points="0.5 2.96 0.5 0.5 3.54 0.5"/><polyline class="cls-2" points="1472.14 857.86 1475.53 857.86 1475.53 854.47"/></g></g></g></g></g></svg>