<svg xmlns="http://www.w3.org/2000/svg" viewBox="0 0 1476.03 858.36"><defs><style>.cls-1{fill:#df3faf;fill-opacity:0.1;stroke:#df3faf;stroke-width:0.25px;}.cls-1,.cls-2{stroke-miterlimit:10;}.cls-2{fill:none;stroke:#000;}</style></defs><g id="Layer_2" data-name="Layer 2"><g id="Layer_2-2" data-name="Layer 2"><g id="floor-1"><g id="stairs-floor-1"><polygon id="stairs-floor-1-angellfront" class="cls-1" points="860.42 692.55 839.27 695.05 824.15 664.31 845.46 662.29 860.42 692.55"/><polygon id="stairs-floor-1-prescottmain" class="cls-1" points="602.94 677.38 629.87 674.2 632.22 694.08 623.32 695.13 624.31 703.45 606.28 705.58 602.94 677.38"/><polygon id="stairs-floor-1-angellback" class="cls-1" points="644.35 733.63 646.07 727.68 647.22 722.11 648.5 717.63 654.86 691.4 636.8 693.64 629.05 727.68 632.73 735 644.35 733.63"/><polygon id="stairs-floor-1-morganfront" class="cls-1" points="800.12 570.99 817.96 552.46 823.04 546.83 832.87 564.4 809.23 589.25 800.12 570.99"/><polygon id="stairs-floor-1-morganback" class="cls-1" points="879.78 710.6 892.89 709.04 910.34 745.04 887.66 747.42 874.1 720.02 880.75 712.39 879.78 710.6"/><polygon id="stairs-floor-1-prescottback" class="cls-1" points="527.72 639.68 558.06 636.14 561.89 668.46 531.5 672.06 527.72 639.68"/><polygon id="stairs-floor-1-whfireplace" class="cls-1" points="435.3 554.55 449.44 552.87 447.5 536.45 433.61 538.09 434.86 548.67 435.3 554.55"/><polygon id="stairs-floor-1-whnorth" class="cls-1" points="571.08 508.58 573.06 525.31 602.82 526.47 600.29 505.12 571.08 508.58"/><polygon id="stairs-floor-1-whsouth" class="cls-1" points="579.89 582.85 581.36 595.44 610.47 591.99 608.98 579.4 579.89 582.85"/><polygon id="stairs-floor-1-gcahalf" class="cls-1" points="450.71 647.7 450.12 642.78 448.2 626.5 438.02 627.71 440.53 648.91 450.71 647.7"/><polygon id="stairs-floor-1-gcamain" class="cls-1" points="510.18 620.54 512.52 640.39 485.93 643.53 485.16 636.98 483.58 623.69 510.18 620.54"/><polygon id="stairs-floor-1-gcaback" class="cls-1" points="519.64 753.02 531.5 751.62 540.79 750.52 535.05 702.05 513.91 704.56 519.64 753.02"/><polygon id="stairs-floor-1-isenberg" class="cls-1" points="508.07 655.24 501.42 656.02 494.97 656.79 487.92 658.54 480.69 660.91 473.57 663.85 471.82 664.73 469.33 660.21 462.92 663.71 457.38 667.5 452.7 670.91 447.51 675.33 442.51 679.89 437.66 685.67 431.98 692.94 428.91 698.23 425.54 704.22 422.87 710.02 420.59 716.33 418.74 722.42 417.38 728.4 416.19 735.42 415.65 742.15 415.48 748.77 415.93 758.28 417.34 770.16 481.2 762.35 479.81 750.61 479.47 744.89 480.33 740.36 481.68 735.73 483.99 731.15 489.75 723.53 493.08 720.95 497.09 718.41 501.42 716.27 506.09 715.05 515.03 713.99 508.07 655.24"/><polygon class="cls-1" points="661.7 387.77 693 384.06 694.88 399.93 674.93 402.29 663.58 403.63 661.7 387.77"/><polygon class="cls-1" points="635.21 271.69 605.08 275.25 607.97 299.64 625.46 297.57 623.45 281.42 636.18 279.91 635.21 271.69"/><polygon class="cls-1" points="588.8 296.63 566.86 299.23 564.59 280.05 577.2 278.56 590.3 277 592.57 296.18 588.8 296.63"/><polygon class="cls-1" points="524.74 252.54 526.78 269.78 528.51 284.32 548.64 281.94 544.88 250.16 524.74 252.54"/><polygon class="cls-1" points="994.22 303.66 990.74 296.27 1019.7 282.96 1022.54 289.12 1025.14 294.44 1026.27 296.64 997.01 309.82 996.43 308.56 994.22 303.66"/><polygon class="cls-1" points="988.06 346.57 990.95 352.7 1005.28 345.93 1002.56 340.04 988.06 346.57"/><polygon class="cls-1" points="944 350.17 947.82 358.71 956.07 354.89 951.02 346.7 944 350.17"/><polygon class="cls-1" points="1036.29 361.4 1031.28 350.62 1040.77 346.17 1046.15 356.79 1036.29 361.4"/><polygon class="cls-1" points="163.31 724.2 165.02 738.66 167.59 760.35 184.27 758.38 179.99 722.23 163.31 724.2"/><polygon class="cls-1" points="243.29 720.06 249.28 734.87 261.08 733.48 253.36 716.18 243.29 720.06"/><polygon class="cls-1" points="262.81 748.12 283.87 745.63 287.87 779.45 266.87 781.93 262.81 748.12"/><polygon class="cls-1" points="313.72 637.12 313.03 637.2 292.56 639.62 289.86 616.73 311.82 614.13 313.84 631.19 313.72 637.12"/><polygon class="cls-1" points="336.37 526.69 337.36 535.09 372.86 527.71 372.41 511.57 359.34 513.12 360.98 521.77 336.37 526.69"/><polygon class="cls-1" points="271.8 476.33 274.55 499.6 297.94 496.84 297.03 489.17 295.19 473.56 271.8 476.33"/><g id="boundaries"><polyline class="cls-2" points="0.5 2.96 0.5 0.5 3.54 0.5"/><polyline class="cls-2" points="1472.14 857.86 1475.53 857.86 1475.53 854.47"/></g></g></g></g></g></svg>