<svg xmlns="http://www.w3.org/2000/svg" viewBox="0 0 1476.03 858.36"><defs><style>.cls-1{fill:#8cc63f;fill-opacity:0.5;}.cls-2{fill:none;stroke:#000;stroke-miterlimit:10;}</style></defs><g id="Layer_2" data-name="Layer 2"><g id="Layer_2-2" data-name="Layer 2"><g id="floor-6"><g id="trees-floor-6"><circle class="cls-1" cx="571.82" cy="206.7" r="13.3" transform="translate(-20.33 68.64) rotate(-6.75)"/><circle class="cls-1" cx="622.46" cy="200.71" r="13.3" transform="translate(-19.28 74.55) rotate(-6.75)"/><circle class="cls-1" cx="673.01" cy="194.72" r="13.3" transform="translate(-18.22 80.45) rotate(-6.75)"/><circle class="cls-1" cx="714.48" cy="195.45" r="11.2" transform="translate(-18.02 85.33) rotate(-6.75)"/><circle class="cls-1" cx="695.96" cy="201.47" r="11.3" transform="translate(-18.86 83.2) rotate(-6.75)"/><circle class="cls-1" cx="729.56" cy="217.33" r="29.7" transform="translate(-20.49 87.26) rotate(-6.75)"/><circle class="cls-1" cx="751.28" cy="218.79" r="11.2" transform="translate(-20.51 89.82) rotate(-6.75)"/><circle class="cls-1" cx="749.12" cy="267.78" r="29.2"/><circle class="cls-1" cx="706.25" cy="305.38" r="11.5"/><circle class="cls-1" cx="710.71" cy="343.12" r="11.3"/><circle class="cls-1" cx="767.29" cy="293.63" r="29"/><circle class="cls-1" cx="788.52" cy="345.39" r="17.8"/><circle class="cls-1" cx="738.79" cy="382.09" r="11.8"/><circle class="cls-1" cx="764.69" cy="401.88" r="19.1" transform="translate(-41.94 92.67) rotate(-6.75)"/><circle class="cls-1" cx="798.9" cy="390.58" r="11.3"/><circle class="cls-1" cx="700.61" cy="499.39" r="58.3"/><circle class="cls-1" cx="607.39" cy="522.61" r="9.6" transform="translate(-57.22 75.01) rotate(-6.75)"/><circle class="cls-1" cx="614.08" cy="579.11" r="8.8"/><circle class="cls-1" cx="647.26" cy="590.59" r="10.2"/><circle class="cls-1" cx="752.57" cy="617.6" r="19.2"/><circle class="cls-1" cx="663.85" cy="655.9" r="19.3"/><circle class="cls-1" cx="869.48" cy="519.78" r="8.6"/><circle class="cls-1" cx="903.96" cy="524.36" r="13.4" transform="translate(-55.37 109.88) rotate(-6.75)"/><circle class="cls-1" cx="932.33" cy="583.74" r="13.3"/><circle class="cls-1" cx="989.04" cy="699.58" r="11.1"/><circle class="cls-1" cx="976.03" cy="761.54" r="10.3"/><circle class="cls-1" cx="826.87" cy="779.19" r="15.2"/><circle class="cls-1" cx="801.3" cy="757.95" r="8.9"/><circle class="cls-1" cx="737.14" cy="769.77" r="9.6"/><circle class="cls-1" cx="722.7" cy="791.52" r="13.9"/><circle class="cls-1" cx="700.01" cy="770.84" r="12.9"/><circle class="cls-1" cx="642.61" cy="777.64" r="10.9"/><circle class="cls-1" cx="609.58" cy="753.75" r="11.7"/><circle class="cls-1" cx="566.94" cy="756.79" r="10.8"/><circle class="cls-1" cx="513.02" cy="792.98" r="10.9" transform="translate(-89.65 65.8) rotate(-6.75)"/><circle class="cls-1" cx="519.81" cy="816.34" r="14.4" transform="translate(-92.35 66.76) rotate(-6.75)"/><circle class="cls-1" cx="466.22" cy="779.58" r="10.9" transform="translate(-88.4 60.2) rotate(-6.75)"/><circle class="cls-1" cx="440.77" cy="775.55" r="9.1" transform="translate(-88.1 57.18) rotate(-6.75)"/><circle class="cls-1" cx="420.02" cy="790.79" r="16.6" transform="translate(-90.04 54.85) rotate(-6.75)"/><circle class="cls-1" cx="337.29" cy="793.74" r="10.6" transform="translate(-90.96 45.15) rotate(-6.75)"/><circle class="cls-1" cx="314.51" cy="805.49" r="16.1" transform="translate(-92.5 42.55) rotate(-6.75)"/><circle class="cls-1" cx="288.34" cy="797.92" r="14.7" transform="translate(-91.79 39.42) rotate(-6.75)"/><circle class="cls-1" cx="146.81" cy="823.03" r="19.7" transform="translate(-95.72 22.96) rotate(-6.75)"/><circle class="cls-1" cx="113.15" cy="779.38" r="13.8" transform="translate(-98.57 20.82) rotate(-7.33)"/><circle class="cls-1" cx="106.62" cy="730.21" r="14.5"/><circle class="cls-1" cx="149.08" cy="700.11" r="14.8" transform="translate(-58.57 15.09) rotate(-4.84)"/><circle class="cls-1" cx="119.68" cy="613.36" r="12.2" transform="translate(-71.26 18.32) rotate(-6.75)"/><circle class="cls-1" cx="113.46" cy="542.1" r="10.5"/><circle class="cls-1" cx="332.1" cy="677.54" r="11"/><circle class="cls-1" cx="355.6" cy="666.8" r="10.9" transform="translate(-75.91 46.42) rotate(-6.75)"/><circle class="cls-1" cx="427.32" cy="573.43" r="7.2"/><circle class="cls-1" cx="430.17" cy="586.48" r="3.8"/><circle class="cls-1" cx="424.97" cy="542.49" r="5.5"/><circle class="cls-1" cx="418.78" cy="511.5" r="4.8"/><circle class="cls-1" cx="489.84" cy="455.06" r="16.5"/><circle class="cls-1" cx="516.54" cy="497.72" r="11.3"/><circle class="cls-1" cx="543.85" cy="494.48" r="11.3"/><circle class="cls-1" cx="566.89" cy="486.72" r="8.2"/><circle class="cls-1" cx="569.72" cy="432.31" r="10"/><circle class="cls-1" cx="566.83" cy="407.88" r="10.5"/><circle class="cls-1" cx="561.95" cy="366.67" r="9.7"/><circle class="cls-1" cx="559.27" cy="344.03" r="9.6" transform="translate(191.48 887.97) rotate(-87.53)"/><circle class="cls-1" cx="443.24" cy="325.94" r="7.2"/><circle class="cls-1" cx="459.67" cy="318.46" r="6.7"/><circle class="cls-1" cx="377.37" cy="346.22" r="15.4"/><circle class="cls-1" cx="322.54" cy="234.39" r="19.2" transform="translate(-25.31 39.54) rotate(-6.75)"/><circle class="cls-1" cx="271.64" cy="238.2" r="18.8" transform="translate(21.96 499.33) rotate(-87.53)"/><circle class="cls-1" cx="304.23" cy="255.79" r="18.2" transform="matrix(0.04, -1, 1, 0.04, 35.58, 548.73)"/><circle class="cls-1" cx="96.66" cy="254.68" r="18.9"/><circle class="cls-1" cx="82.51" cy="379.31" r="20.9"/><circle class="cls-1" cx="154.48" cy="391.84" r="15.1"/><circle class="cls-1" cx="805.13" cy="111.42" r="12.7" transform="translate(-7.51 95.41) rotate(-6.75)"/><circle class="cls-1" cx="832.66" cy="105.74" r="12.4" transform="translate(-6.66 98.6) rotate(-6.75)"/><circle class="cls-1" cx="855.61" cy="99.7" r="11.8" transform="translate(-5.79 101.26) rotate(-6.75)"/><circle class="cls-1" cx="813.33" cy="138.94" r="12.9" transform="translate(-10.69 96.56) rotate(-6.75)"/><circle class="cls-1" cx="920.61" cy="119.7" r="12.9" transform="translate(-7.69 109.04) rotate(-6.75)"/><circle class="cls-1" cx="956.91" cy="78.45" r="16.4" transform="matrix(0.99, -0.12, 0.12, 0.99, -2.59, 113.02)"/><circle class="cls-1" cx="987.43" cy="88.73" r="22.9" transform="translate(-3.58 116.68) rotate(-6.75)"/><circle class="cls-1" cx="1052.62" cy="79.71" r="11.3" transform="translate(853.68 1116.43) rotate(-83.47)"/><circle class="cls-1" cx="1050.22" cy="132.56" r="15.5"/><circle class="cls-1" cx="1000.56" cy="159.68" r="16.9" transform="translate(-11.83 118.71) rotate(-6.75)"/><circle class="cls-1" cx="964.41" cy="183.5" r="8.9" transform="translate(-14.88 114.63) rotate(-6.75)"/><circle class="cls-1" cx="1045.54" cy="224.95" r="35.4" transform="translate(-19.19 124.45) rotate(-6.75)"/><circle class="cls-1" cx="1081.96" cy="244.2" r="16.7" transform="translate(-21.2 128.86) rotate(-6.75)"/><circle class="cls-1" cx="1020.49" cy="260.84" r="16.3"/><circle class="cls-1" cx="971.9" cy="246.75" r="14.1" transform="translate(-22.27 115.94) rotate(-6.75)"/><circle class="cls-1" cx="961.07" cy="275.22" r="11.5"/><circle class="cls-1" cx="908.27" cy="263.05" r="11"/><circle class="cls-1" cx="913.83" cy="310.02" r="12"/><circle class="cls-1" cx="935.44" cy="313.9" r="7.5"/><circle class="cls-1" cx="1004.17" cy="284.62" r="8.3"/><circle class="cls-1" cx="1061.27" cy="316.13" r="14.8" transform="translate(699.74 1362.81) rotate(-87.53)"/><circle class="cls-1" cx="1064.7" cy="366.38" r="14.1" transform="translate(-35.68 127.68) rotate(-6.75)"/><circle class="cls-1" cx="978.66" cy="395.79" r="8.6" transform="translate(-39.74 117.77) rotate(-6.75)"/><circle class="cls-1" cx="981.55" cy="467.85" r="15"/><circle class="cls-1" cx="1130.73" cy="381.42" r="13.3" transform="translate(-36.99 135.55) rotate(-6.75)"/><circle class="cls-1" cx="1191.87" cy="370.56" r="11.9" transform="translate(-35.29 142.66) rotate(-6.75)"/><circle class="cls-1" cx="1231.01" cy="360.89" r="12.5"/><circle class="cls-1" cx="1010.99" cy="515.82" r="27.3"/><circle class="cls-1" cx="1151.75" cy="453.55" r="16.2" transform="translate(-45.33 138.52) rotate(-6.75)"/><circle class="cls-1" cx="1167.25" cy="488.37" r="15.6"/><circle class="cls-1" cx="1036.11" cy="560.38" r="19.5"/><circle class="cls-1" cx="1053.8" cy="607.83" r="27.8"/><circle class="cls-1" cx="1094.23" cy="588.64" r="18.1" transform="translate(459.02 1656.52) rotate(-87.53)"/><circle class="cls-1" cx="1169.09" cy="548.97" r="15.2" transform="translate(-56.42 141.22) rotate(-6.75)"/><circle class="cls-1" cx="1202.46" cy="550.16" r="18.4"/><circle class="cls-1" cx="1188.35" cy="588.38" r="18.3" transform="translate(-60.92 143.75) rotate(-6.75)"/><circle class="cls-1" cx="1093.01" cy="683.85" r="18.7"/><circle class="cls-1" cx="1116.96" cy="690.48" r="14.3" transform="translate(379.03 1776.67) rotate(-87.53)"/><circle class="cls-1" cx="1099.4" cy="717.43" r="19"/><circle class="cls-1" cx="1250.81" cy="670.31" r="18.7" transform="translate(-70.12 151.66) rotate(-6.75)"/><circle class="cls-1" cx="1282.67" cy="673.18" r="15.3" transform="translate(-70.23 155.43) rotate(-6.75)"/><circle class="cls-1" cx="1329.87" cy="646.55" r="14.2" transform="translate(-66.78 160.79) rotate(-6.75)"/><circle class="cls-1" cx="1316.7" cy="448.52" r="10"/><circle class="cls-1" cx="1290.54" cy="405.3" r="14"/><circle class="cls-1" cx="1307.96" cy="401.02" r="9.8" transform="translate(-38.07 156.51) rotate(-6.75)"/><circle class="cls-1" cx="1426.56" cy="346.4" r="9.2" transform="matrix(0.99, -0.12, 0.12, 0.99, -30.83, 170.08)"/><circle class="cls-1" cx="1415.99" cy="294.49" r="8.2" transform="translate(-24.8 168.47) rotate(-6.75)"/><circle class="cls-1" cx="1401.47" cy="241.63" r="11.6" transform="translate(-18.69 166.4) rotate(-6.75)"/><circle class="cls-1" cx="1397.5" cy="225.08" r="10.2" transform="translate(-16.77 165.82) rotate(-6.75)"/><circle class="cls-1" cx="1366.47" cy="220.7" r="15.1" transform="translate(-16.47 162.14) rotate(-6.75)"/><circle class="cls-1" cx="1387.33" cy="190.23" r="20"/><circle class="cls-1" cx="1361.91" cy="193.24" r="7.1" transform="translate(-13.27 161.41) rotate(-6.75)"/><circle class="cls-1" cx="1345.14" cy="197.04" r="6.7" transform="translate(-13.84 159.47) rotate(-6.75)"/><circle class="cls-1" cx="1327.28" cy="200.97" r="7.3" transform="translate(-14.42 157.4) rotate(-6.75)"/><circle class="cls-1" cx="1302.75" cy="203.87" r="14.2" transform="translate(-14.93 154.54) rotate(-6.75)"/><circle class="cls-1" cx="1263.99" cy="213.29" r="13.8" transform="translate(-16.31 150.04) rotate(-6.75)"/><circle class="cls-1" cx="1238.71" cy="214.97" r="18.4" transform="translate(-16.68 147.08) rotate(-6.75)"/><circle class="cls-1" cx="1214.74" cy="223.45" r="21.3" transform="translate(-17.84 144.33) rotate(-6.75)"/><circle class="cls-1" cx="1189.52" cy="226.43" r="20.4" transform="matrix(0.99, -0.12, 0.12, 0.99, -18.37, 141.38)"/><circle class="cls-1" cx="1165.36" cy="230.8" r="21.6" transform="translate(-19.05 138.57) rotate(-6.75)"/><g id="boundaries"><polyline class="cls-2" points="0.5 2.96 0.5 0.5 3.54 0.5"/><polyline class="cls-2" points="1472.14 857.86 1475.53 857.86 1475.53 854.47"/></g></g></g></g></g></svg>