<svg xmlns="http://www.w3.org/2000/svg" viewBox="0 0 1476.03 858.36"><defs><style>.cls-1,.cls-2{fill:none;stroke-miterlimit:10;}.cls-1{stroke:#e29952;stroke-width:2px;}.cls-2{stroke:#000;}</style></defs><g id="Layer_2" data-name="Layer 2"><g id="Layer_2-2" data-name="Layer 2"><g id="floor-6"><g id="walls-floor-6"><polyline class="cls-1" points="259.6 230.02 260.63 238.76 326.73 285.38 334.72 284.82"/><polyline class="cls-1" points="379.08 250.51 382.72 281.29 381.98 289.89 381.84 299.36 384 307.66 390.1 314.57 400.06 321.45"/><polyline class="cls-1" points="376.3 324.85 370.52 337.7 367.03 350.03 367.41 361.06 372.58 368.59 377.47 368.77 381.11 365.48 387.29 370.96 390.5 376.04 395 383.56 399.96 386.5 406.42 386.49 415.07 383 419.62 375.36 424.62 365.12 423.61 347.36 419.73 314.62"/><polyline class="cls-1" points="436.75 312.61 440.38 343.31 472.71 339.48 469.55 312.76"/><polyline class="cls-1" points="488.64 310.5 493.03 309.98 495.29 309.71"/><polyline class="cls-1" points="549.23 334.44 551.57 354.27 554.36 377.82"/><polyline class="cls-1" points="556.93 399.55 559.08 417.7 562.05 442.8"/><polyline class="cls-1" points="456.82 449.11 459.55 456.06 470.06 454.14 476.96 454.78 485.55 458.35 492.32 462.58 495.42 466.13 507.44 455.18 501.07 450.47 493.57 446.66 484.53 444.04 475.64 443.64 464.86 444.91 456.82 449.11"/><polyline class="cls-1" points="600.29 505.12 608.78 511.81 615.16 519.21 620.99 529.7 625.73 540.44 627.02 551.37 625.99 564.36 620.5 578.54 613.96 588.49 610.48 592.03"/><polyline class="cls-1" points="613.02 449.08 608.82 449.58 606.74 450.89 605.55 453.66 607.19 467.45 609.2 470.23 612.45 470.35 653.78 465.46 654.33 470.15 654.95 475.39"/><polyline class="cls-1" points="675.03 473.01 673.85 463.03 703.85 459.48 708.38 459.82 711.67 461.21 713.83 463.36 715.64 466.53 717.12 470.55 722.22 513.67 723.48 516.5 726.5 517.94 738.67 516.5 730.29 445.73 728.88 443.45 724.65 441.3"/><polyline class="cls-1" points="631.67 601.05 633.65 596.51 638.79 589.25 646.72 583.05 654.73 579.86 662.29 578.97 669.5 579.85 674.53 581.27 680.02 584.14 684.59 587.29 691.05 594.19"/><polyline class="cls-1" points="706.86 605.8 703.64 578.55 705.17 575.46 707.91 572.56 712.76 571.99 716.36 573.58 718.61 576.5 722.37 608.28 723.55 611.16 726.28 612.01 750.39 609.16 753.21 607.96 753.65 605.53 752.19 593.17 752.61 590.1 755.29 588.66 764.23 587.6"/><polyline class="cls-1" points="736.99 600.07 739.01 599.83 738.44 595.03 733.68 595.6 734.25 600.4 736.99 600.07"/><polyline class="cls-1" points="734.45 582.83 732.2 583.1 731.62 578.18 736.01 577.66 736.59 582.58 734.45 582.83"/><polyline class="cls-1" points="598.76 631.68 597.39 620.09 595.8 606.64"/><polyline class="cls-1" points="734.05 382.45 735.55 395.11 738.13 401.94 741.69 405.21 748.05 409.32 756.09 413.41 764.11 415.98 773.12 417.38 781.27 417.7 787.39 416.98 794.86 414.81 797.68 413.18"/><polyline class="cls-1" points="245.98 829.64 325.09 820.27 332.55 818.08 339.47 814.15 344.71 809.51 348.19 804.14 351.44 798.3"/><polyline class="cls-1" points="405.31 791.93 408.75 797.28 412.92 801.38 418.7 804.83 426.54 807.71 437.01 809.49 529 798.6"/><polyline class="cls-1" points="544.48 796.77 592.37 791.1 625.98 787.12"/><polyline class="cls-1" points="323.93 672.79 326.77 679.91 328.88 681.65 334.37 682 341.3 682.12 350.36 679.89 358.53 675.21 366.42 667.47 368.49 663.25 365.5 655.87"/><polyline class="cls-1" points="1094.67 601.12 1107.08 599.65 1117.65 596.77 1126.04 590.4 1132.24 583.21 1136.53 577.66 1146.87 570.73 1154.61 566.63 1163.36 563.24 1180.92 561.78 1196.74 565 1202.84 565 1208.89 563.23 1214.88 559.5 1220.71 554.38 1224.12 548.22 1224.93 542.25 1223.36 533.26"/><g id="boundaries"><polyline class="cls-2" points="0.5 2.96 0.5 0.5 3.54 0.5"/><polyline class="cls-2" points="1472.14 857.86 1475.53 857.86 1475.53 854.47"/></g></g></g></g></g></svg>