<svg id="Capa_1" enable-background="new 0 0 512 512" height="512" viewBox="0 0 512 512" width="512" xmlns="http://www.w3.org/2000/svg"><g><path d="m497 422h-30c-66.89 0-81.61-168.22-197-203.53v104.67c52.64 53.28 79.22 188.86 196.88 188.86h30.12c8.28 0 15-6.72 15-15v-60c0-8.28-6.72-15-15-15z"/><path d="m150 212c0-16.843-13.958-30.493-30.913-29.986-16.315.487-29.087 14.303-29.087 30.625v89.361h60z"/><path d="m0 497c0 8.284 6.716 15 15 15s15-6.716 15-15v-195h30v-89.088c0-32.922 26.14-60.397 59.058-60.905 33.509-.517 60.942 26.599 60.942 59.993v90h30v195c0 8.284 6.716 15 15 15s15-6.716 15-15c0-16.657 0-358.804 0-375h-240z"/><path d="m129.88 3.72c-5.65-4.96-14.11-4.96-19.76 0l-100.75 88.28h221.26z"/><path d="m150 332h-60v-30h-30v195c0 8.28 6.72 15 15 15s15-6.72 15-15v-15h60v15c0 8.28 6.72 15 15 15s15-6.72 15-15v-195h-30zm0 30v30h-60v-30zm-60 90v-30h60v30z"/></g></svg>